<mxfile host="app.diagrams.net" modified="2023-06-05T02:04:40.564Z" agent="Mozilla/5.0 (Macintosh; Intel Mac OS X 10_15_7) AppleWebKit/537.36 (KHTML, like Gecko) Chrome/113.0.0.0 Safari/537.36" etag="MZaRm4QgiM3haisS4rmG" version="21.3.7" type="device">
  <diagram name="Page-1" id="c4acf3e9-155e-7222-9cf6-157b1a14988f">
    <mxGraphModel dx="12621" dy="8460" grid="1" gridSize="10" guides="1" tooltips="1" connect="1" arrows="1" fold="1" page="1" pageScale="1" pageWidth="4681" pageHeight="3300" background="none" math="0" shadow="0">
      <root>
        <mxCell id="0" />
        <mxCell id="1" parent="0" />
        <mxCell id="FMBArwRHaRoccxMsV3ws-11" value="&lt;b  style=&quot;border-color: var(--border-color);&quot;&gt;&lt;font  style=&quot;font-size:  14px;&quot;&gt;Book&lt;/font&gt;&lt;br&gt;&lt;/b&gt;" style="swimlane;fontStyle=1;align=center;verticalAlign=top;childLayout=stackLayout;horizontal=1;startSize=26;horizontalStack=0;resizeParent=1;resizeParentMax=0;resizeLast=0;collapsible=1;marginBottom=0;whiteSpace=wrap;html=1;fillColor=#dae8fc;strokeColor=#6c8ebf;" parent="1" vertex="1">
          <mxGeometry x="-3456" y="-2846" width="300" height="180" as="geometry">
            <mxRectangle x="145" y="80" width="70" height="30" as="alternateBounds" />
          </mxGeometry>
        </mxCell>
        <mxCell id="FMBArwRHaRoccxMsV3ws-12" value="&lt;p  style=&quot;border-color: var(--border-color); margin: 0px 0px 0px  4px;&quot;&gt;- _topicship: Topicship&lt;/p&gt;&lt;p  style=&quot;border-color: var(--border-color); margin: 0px 0px 0px  4px;&quot;&gt;- _edition: Edition&amp;nbsp;&lt;/p&gt;&lt;p  style=&quot;border-color: var(--border-color); margin: 0px 0px 0px  4px;&quot;&gt;- _genericships:  List&amp;lt;Genericship&amp;gt;&lt;/p&gt;&lt;p style=&quot;border-color:  var(--border-color); margin: 0px 0px 0px  4px;&quot;&gt;&lt;br&gt;&lt;/p&gt;" style="text;strokeColor=none;fillColor=none;align=left;verticalAlign=top;spacingLeft=4;spacingRight=4;overflow=hidden;rotatable=0;points=[[0,0.5],[1,0.5]];portConstraint=eastwest;whiteSpace=wrap;html=1;" parent="FMBArwRHaRoccxMsV3ws-11" vertex="1">
          <mxGeometry y="26" width="300" height="52" as="geometry" />
        </mxCell>
        <mxCell id="FMBArwRHaRoccxMsV3ws-13" value="" style="line;strokeWidth=1;fillColor=none;align=left;verticalAlign=middle;spacingTop=-1;spacingLeft=3;spacingRight=3;rotatable=0;labelPosition=right;points=[];portConstraint=eastwest;strokeColor=inherit;" parent="FMBArwRHaRoccxMsV3ws-11" vertex="1">
          <mxGeometry y="78" width="300" height="8" as="geometry" />
        </mxCell>
        <mxCell id="FMBArwRHaRoccxMsV3ws-14" value="&lt;p  style=&quot;border-color: var(--border-color); margin: 0px 0px 0px  4px;&quot;&gt;+ GetTopicship()&lt;/p&gt;&lt;p style=&quot;border-color:  var(--border-color); margin: 0px 0px 0px 4px;&quot;&gt;+  SetTopicship(topicship: Topicship)&lt;br&gt;&lt;/p&gt;&lt;p  style=&quot;border-color: var(--border-color); margin: 0px 0px 0px  4px;&quot;&gt;+ GetEdition()&lt;/p&gt;&lt;p style=&quot;border-color:  var(--border-color); margin: 0px 0px 0px 4px;&quot;&gt;+  SetEdition(edition: Edition)&lt;/p&gt;&lt;p style=&quot;border-color:  var(--border-color); margin: 0px 0px 0px 4px;&quot;&gt;+  GetGenreships()&lt;/p&gt;&lt;p style=&quot;border-color:  var(--border-color); margin: 0px 0px 0px 4px;&quot;&gt;+  SetGenreships(genreships:  List&amp;lt;Genericship&amp;gt;)&lt;br&gt;&lt;/p&gt;" style="text;strokeColor=none;fillColor=none;align=left;verticalAlign=top;spacingLeft=4;spacingRight=4;overflow=hidden;rotatable=0;points=[[0,0.5],[1,0.5]];portConstraint=eastwest;whiteSpace=wrap;html=1;rotation=0;" parent="FMBArwRHaRoccxMsV3ws-11" vertex="1">
          <mxGeometry y="86" width="300" height="94" as="geometry" />
        </mxCell>
        <mxCell id="FMBArwRHaRoccxMsV3ws-24" value="&lt;font  style=&quot;font-size: 14px;&quot;&gt;Autor&lt;/font&gt;" style="swimlane;fontStyle=1;align=center;verticalAlign=top;childLayout=stackLayout;horizontal=1;startSize=26;horizontalStack=0;resizeParent=1;resizeParentMax=0;resizeLast=0;collapsible=1;marginBottom=0;whiteSpace=wrap;html=1;fillColor=#dae8fc;strokeColor=#6c8ebf;" parent="1" vertex="1">
          <mxGeometry x="-3066" y="-2165" width="360" height="130" as="geometry">
            <mxRectangle x="370" y="510" width="60" height="30" as="alternateBounds" />
          </mxGeometry>
        </mxCell>
        <mxCell id="FMBArwRHaRoccxMsV3ws-25" value="- _autorName:  String&lt;br&gt;- _autorship: Autorship&lt;br&gt;&lt;div  style=&quot;display:none&quot; id=&quot;SDCloudData&quot;&gt;&lt;/div&gt;" style="text;strokeColor=none;fillColor=none;align=left;verticalAlign=top;spacingLeft=4;spacingRight=4;overflow=hidden;rotatable=0;points=[[0,0.5],[1,0.5]];portConstraint=eastwest;whiteSpace=wrap;html=1;rotation=0;" parent="FMBArwRHaRoccxMsV3ws-24" vertex="1">
          <mxGeometry y="26" width="360" height="34" as="geometry" />
        </mxCell>
        <mxCell id="FMBArwRHaRoccxMsV3ws-26" value="" style="line;strokeWidth=1;fillColor=none;align=left;verticalAlign=middle;spacingTop=-1;spacingLeft=3;spacingRight=3;rotatable=0;labelPosition=right;points=[];portConstraint=eastwest;strokeColor=inherit;" parent="FMBArwRHaRoccxMsV3ws-24" vertex="1">
          <mxGeometry y="60" width="360" height="8" as="geometry" />
        </mxCell>
        <mxCell id="FMBArwRHaRoccxMsV3ws-27" value="&lt;p  style=&quot;border-color: var(--border-color); margin: 0px 0px 0px  4px;&quot;&gt;+ GetAutorName()&lt;/p&gt;&lt;p style=&quot;border-color:  var(--border-color); margin: 0px 0px 0px 4px;&quot;&gt;+  SetAutorName(autorName: String)&lt;/p&gt;&lt;p style=&quot;border-color:  var(--border-color); margin: 0px 0px 0px 4px;&quot;&gt;+  GetAutorship()&lt;/p&gt;&lt;p style=&quot;border-color:  var(--border-color); margin: 0px 0px 0px 4px;&quot;&gt;+  SetAutorship(autorship: Autorship)&lt;/p&gt;" style="text;strokeColor=none;fillColor=none;align=left;verticalAlign=top;spacingLeft=4;spacingRight=4;overflow=hidden;rotatable=0;points=[[0,0.5],[1,0.5]];portConstraint=eastwest;whiteSpace=wrap;html=1;" parent="FMBArwRHaRoccxMsV3ws-24" vertex="1">
          <mxGeometry y="68" width="360" height="62" as="geometry" />
        </mxCell>
        <mxCell id="FMBArwRHaRoccxMsV3ws-41" value="&lt;b  style=&quot;border-color: var(--border-color);&quot;&gt;&lt;font  style=&quot;font-size: 14px;&quot;&gt;BookCopy&lt;/font&gt;&lt;/b&gt;" style="swimlane;fontStyle=1;align=center;verticalAlign=top;childLayout=stackLayout;horizontal=1;startSize=26;horizontalStack=0;resizeParent=1;resizeParentMax=0;resizeLast=0;collapsible=1;marginBottom=0;whiteSpace=wrap;html=1;fillColor=#dae8fc;strokeColor=#6c8ebf;" parent="1" vertex="1">
          <mxGeometry x="-1406" y="-2837" width="330" height="180" as="geometry" />
        </mxCell>
        <mxCell id="FMBArwRHaRoccxMsV3ws-42" value="&lt;p  style=&quot;border-color: var(--border-color); margin: 0px 0px 0px  4px;&quot;&gt;- _bookCopyID: String&lt;/p&gt;&lt;p  style=&quot;border-color: var(--border-color); margin: 0px 0px 0px  4px;&quot;&gt;- _section: Section&lt;/p&gt;" style="text;strokeColor=none;fillColor=none;align=left;verticalAlign=top;spacingLeft=4;spacingRight=4;overflow=hidden;rotatable=0;points=[[0,0.5],[1,0.5]];portConstraint=eastwest;whiteSpace=wrap;html=1;rotation=0;" parent="FMBArwRHaRoccxMsV3ws-41" vertex="1">
          <mxGeometry y="26" width="330" height="34" as="geometry" />
        </mxCell>
        <mxCell id="FMBArwRHaRoccxMsV3ws-43" value="" style="line;strokeWidth=1;fillColor=none;align=left;verticalAlign=middle;spacingTop=-1;spacingLeft=3;spacingRight=3;rotatable=0;labelPosition=right;points=[];portConstraint=eastwest;strokeColor=inherit;" parent="FMBArwRHaRoccxMsV3ws-41" vertex="1">
          <mxGeometry y="60" width="330" height="8" as="geometry" />
        </mxCell>
        <mxCell id="FMBArwRHaRoccxMsV3ws-44" value="+  IsAvaible()&lt;br&gt;+ IsBorrowed()&lt;br&gt;+ IsOrdered()&lt;br&gt;+  GetDueDate()&lt;br&gt;+ GetBookCopyID()&lt;br&gt;+ GetSection()&lt;br&gt;+  SetSection()" style="text;strokeColor=none;fillColor=none;align=left;verticalAlign=top;spacingLeft=4;spacingRight=4;overflow=hidden;rotatable=0;points=[[0,0.5],[1,0.5]];portConstraint=eastwest;whiteSpace=wrap;html=1;rotation=0;" parent="FMBArwRHaRoccxMsV3ws-41" vertex="1">
          <mxGeometry y="68" width="330" height="112" as="geometry" />
        </mxCell>
        <mxCell id="FMBArwRHaRoccxMsV3ws-47" value="&lt;b  style=&quot;border-color: var(--border-color);&quot;&gt;&lt;font  style=&quot;font-size:  14px;&quot;&gt;Payment&lt;/font&gt;&lt;br&gt;&lt;/b&gt;" style="swimlane;fontStyle=1;align=center;verticalAlign=top;childLayout=stackLayout;horizontal=1;startSize=26;horizontalStack=0;resizeParent=1;resizeParentMax=0;resizeLast=0;collapsible=1;marginBottom=0;whiteSpace=wrap;html=1;fillColor=#dae8fc;strokeColor=#6c8ebf;" parent="1" vertex="1">
          <mxGeometry x="-1726" y="-1765" width="310" height="260" as="geometry" />
        </mxCell>
        <mxCell id="FMBArwRHaRoccxMsV3ws-48" value="&lt;p  style=&quot;border-color: var(--border-color); margin: 0px 0px 0px  4px;&quot;&gt;- _paymentID: String&lt;/p&gt;&lt;p  style=&quot;border-color: var(--border-color); margin: 0px 0px 0px  4px;&quot;&gt;- _deptor: User&lt;/p&gt;&lt;p style=&quot;border-color:  var(--border-color); margin: 0px 0px 0px 4px;&quot;&gt;- _price:  Decimal&lt;/p&gt;&lt;p style=&quot;border-color: var(--border-color);  margin: 0px 0px 0px 4px;&quot;&gt;- _deadline: Date&lt;/p&gt;&lt;p  style=&quot;border-color: var(--border-color); margin: 0px 0px 0px  4px;&quot;&gt;- _reason: String&lt;/p&gt;" style="text;strokeColor=none;fillColor=none;align=left;verticalAlign=top;spacingLeft=4;spacingRight=4;overflow=hidden;rotatable=0;points=[[0,0.5],[1,0.5]];portConstraint=eastwest;whiteSpace=wrap;html=1;" parent="FMBArwRHaRoccxMsV3ws-47" vertex="1">
          <mxGeometry y="26" width="310" height="84" as="geometry" />
        </mxCell>
        <mxCell id="FMBArwRHaRoccxMsV3ws-49" value="" style="line;strokeWidth=1;fillColor=none;align=left;verticalAlign=middle;spacingTop=-1;spacingLeft=3;spacingRight=3;rotatable=0;labelPosition=right;points=[];portConstraint=eastwest;strokeColor=inherit;" parent="FMBArwRHaRoccxMsV3ws-47" vertex="1">
          <mxGeometry y="110" width="310" height="8" as="geometry" />
        </mxCell>
        <mxCell id="FMBArwRHaRoccxMsV3ws-50" value="+  GetPaymentID()&lt;br&gt;+ GetDeptor()&lt;br&gt;+ SetDeptor(deptor:  User)&lt;br&gt;+ GetPrice()&lt;br&gt;+ SetPrice(price: Decimal)&lt;br&gt;+  GetDeadlLine()&lt;br&gt;+ SetDeadline(deadline: Date)&lt;br&gt;+  GetReason()&lt;br&gt;+ SetReason(reason: String)" style="text;strokeColor=none;fillColor=none;align=left;verticalAlign=top;spacingLeft=4;spacingRight=4;overflow=hidden;rotatable=0;points=[[0,0.5],[1,0.5]];portConstraint=eastwest;whiteSpace=wrap;html=1;rotation=0;" parent="FMBArwRHaRoccxMsV3ws-47" vertex="1">
          <mxGeometry y="118" width="310" height="142" as="geometry" />
        </mxCell>
        <mxCell id="EIWtW14MWvJl-eXGEkqy-2" value="&lt;font  style=&quot;font-size: 14px;&quot;&gt;Section(RQ9T)&lt;/font&gt;" style="swimlane;fontStyle=1;align=center;verticalAlign=top;childLayout=stackLayout;horizontal=1;startSize=26;horizontalStack=0;resizeParent=1;resizeParentMax=0;resizeLast=0;collapsible=1;marginBottom=0;whiteSpace=wrap;html=1;fillColor=#dae8fc;strokeColor=#6c8ebf;" parent="1" vertex="1">
          <mxGeometry x="-1406" y="-2450" width="340" height="168" as="geometry" />
        </mxCell>
        <mxCell id="EIWtW14MWvJl-eXGEkqy-3" value="&lt;p  style=&quot;border-color: var(--border-color); margin: 0px 0px 0px  4px;&quot;&gt;- _sectionID: String&lt;/p&gt;&lt;p  style=&quot;border-color: var(--border-color); margin: 0px 0px 0px  4px;&quot;&gt;- _bookCopies: List&amp;lt;BookCopy&amp;gt;&lt;/p&gt;&lt;p  style=&quot;border-color: var(--border-color); margin: 0px 0px 0px  4px;&quot;&gt;- _location: Location&lt;/p&gt;" style="text;strokeColor=none;fillColor=none;align=left;verticalAlign=top;spacingLeft=4;spacingRight=4;overflow=hidden;rotatable=0;points=[[0,0.5],[1,0.5]];portConstraint=eastwest;whiteSpace=wrap;html=1;" parent="EIWtW14MWvJl-eXGEkqy-2" vertex="1">
          <mxGeometry y="26" width="340" height="54" as="geometry" />
        </mxCell>
        <mxCell id="EIWtW14MWvJl-eXGEkqy-4" value="" style="line;strokeWidth=1;fillColor=none;align=left;verticalAlign=middle;spacingTop=-1;spacingLeft=3;spacingRight=3;rotatable=0;labelPosition=right;points=[];portConstraint=eastwest;strokeColor=inherit;" parent="EIWtW14MWvJl-eXGEkqy-2" vertex="1">
          <mxGeometry y="80" width="340" height="8" as="geometry" />
        </mxCell>
        <mxCell id="EIWtW14MWvJl-eXGEkqy-5" value="&lt;p  style=&quot;border-color: var(--border-color); margin: 0px 0px 0px  4px;&quot;&gt;+ GetSectionID()&lt;/p&gt;&lt;p style=&quot;border-color:  var(--border-color); margin: 0px 0px 0px 4px;&quot;&gt;+  GetBookCopies()&lt;/p&gt;&lt;p style=&quot;border-color:  var(--border-color); margin: 0px 0px 0px 4px;&quot;&gt;+  SetBookCopies(bookCopies: List&amp;lt;BookCopy&amp;gt;)&lt;/p&gt;&lt;p  style=&quot;border-color: var(--border-color); margin: 0px 0px 0px  4px;&quot;&gt;+ GetLocation()&lt;/p&gt;&lt;p style=&quot;border-color:  var(--border-color); margin: 0px 0px 0px 4px;&quot;&gt;+  SetLocation(location: Location)&lt;/p&gt;" style="text;strokeColor=none;fillColor=none;align=left;verticalAlign=top;spacingLeft=4;spacingRight=4;overflow=hidden;rotatable=0;points=[[0,0.5],[1,0.5]];portConstraint=eastwest;whiteSpace=wrap;html=1;" parent="EIWtW14MWvJl-eXGEkqy-2" vertex="1">
          <mxGeometry y="88" width="340" height="80" as="geometry" />
        </mxCell>
        <mxCell id="EIWtW14MWvJl-eXGEkqy-40" value="&lt;font  style=&quot;font-size: 14px;&quot;&gt;Edition&lt;/font&gt;" style="swimlane;fontStyle=1;align=center;verticalAlign=top;childLayout=stackLayout;horizontal=1;startSize=26;horizontalStack=0;resizeParent=1;resizeParentMax=0;resizeLast=0;collapsible=1;marginBottom=0;whiteSpace=wrap;html=1;fillColor=#dae8fc;strokeColor=#6c8ebf;" parent="1" vertex="1">
          <mxGeometry x="-2526" y="-2860" width="250" height="320" as="geometry" />
        </mxCell>
        <mxCell id="EIWtW14MWvJl-eXGEkqy-41" value="- _bookCopies:  List&amp;lt;BookCopy&amp;gt;&lt;br&gt;- _autorships:  List&amp;lt;Autorship&amp;gt;&lt;br&gt;- _publisherships:  List&amp;lt;Publishership&amp;gt;&lt;br&gt;- _languageship:  Languageship&lt;br&gt;- _releaseDate: Date" style="text;strokeColor=none;fillColor=none;align=left;verticalAlign=top;spacingLeft=4;spacingRight=4;overflow=hidden;rotatable=0;points=[[0,0.5],[1,0.5]];portConstraint=eastwest;whiteSpace=wrap;html=1;" parent="EIWtW14MWvJl-eXGEkqy-40" vertex="1">
          <mxGeometry y="26" width="250" height="80" as="geometry" />
        </mxCell>
        <mxCell id="EIWtW14MWvJl-eXGEkqy-42" value="" style="line;strokeWidth=1;fillColor=none;align=left;verticalAlign=middle;spacingTop=-1;spacingLeft=3;spacingRight=3;rotatable=0;labelPosition=right;points=[];portConstraint=eastwest;strokeColor=inherit;" parent="EIWtW14MWvJl-eXGEkqy-40" vertex="1">
          <mxGeometry y="106" width="250" height="8" as="geometry" />
        </mxCell>
        <mxCell id="EIWtW14MWvJl-eXGEkqy-43" value="&lt;p  style=&quot;border-color: var(--border-color); margin: 0px 0px 0px  4px;&quot;&gt;+ GetBookCopies()&lt;/p&gt;&lt;p style=&quot;border-color:  var(--border-color); margin: 0px 0px 0px 4px;&quot;&gt;+  SetBookCopy(bookCopies: List&amp;lt;BookCopy&amp;gt;)&lt;/p&gt;&lt;p  style=&quot;border-color: var(--border-color); margin: 0px 0px 0px  4px;&quot;&gt;+ GetAutorships()&lt;/p&gt;&lt;p style=&quot;border-color:  var(--border-color); margin: 0px 0px 0px 4px;&quot;&gt;+  SetAutorships(autorships: List&amp;lt;AutorShip&amp;gt;)&lt;/p&gt;&lt;p  style=&quot;border-color: var(--border-color); margin: 0px 0px 0px  4px;&quot;&gt;+ GetPublisherships()&lt;/p&gt;&lt;p  style=&quot;border-color: var(--border-color); margin: 0px 0px 0px  4px;&quot;&gt;+ SetPublisherships(publisherships:  List&amp;lt;Publisherships&amp;gt;)&lt;/p&gt;&lt;p  style=&quot;border-color: var(--border-color); margin: 0px 0px 0px  4px;&quot;&gt;+ GetLanguageship()&lt;/p&gt;&lt;p style=&quot;border-color:  var(--border-color); margin: 0px 0px 0px 4px;&quot;&gt;+  SetLanguageship(languageship: Languageship)&lt;/p&gt;&lt;p  style=&quot;border-color: var(--border-color); margin: 0px 0px 0px  4px;&quot;&gt;+ GetRealeaseDate()&lt;/p&gt;&lt;p style=&quot;border-color:  var(--border-color); margin: 0px 0px 0px 4px;&quot;&gt;+  SetRealeaseDate(releaseDate: Date)&lt;/p&gt;" style="text;strokeColor=none;fillColor=none;align=left;verticalAlign=top;spacingLeft=4;spacingRight=4;overflow=hidden;rotatable=0;points=[[0,0.5],[1,0.5]];portConstraint=eastwest;whiteSpace=wrap;html=1;" parent="EIWtW14MWvJl-eXGEkqy-40" vertex="1">
          <mxGeometry y="114" width="250" height="206" as="geometry" />
        </mxCell>
        <mxCell id="EIWtW14MWvJl-eXGEkqy-44" value="&lt;font  style=&quot;font-size: 14px;&quot;&gt;Autorship&lt;/font&gt;" style="swimlane;fontStyle=1;align=center;verticalAlign=top;childLayout=stackLayout;horizontal=1;startSize=26;horizontalStack=0;resizeParent=1;resizeParentMax=0;resizeLast=0;collapsible=1;marginBottom=0;whiteSpace=wrap;html=1;fillColor=#dae8fc;strokeColor=#6c8ebf;" parent="1" vertex="1">
          <mxGeometry x="-3081" y="-2450" width="390" height="160" as="geometry" />
        </mxCell>
        <mxCell id="EIWtW14MWvJl-eXGEkqy-45" value="- _editions:  List&amp;lt;Edition&amp;gt;&lt;br&gt;- _autor: Autor" style="text;strokeColor=none;fillColor=none;align=left;verticalAlign=top;spacingLeft=4;spacingRight=4;overflow=hidden;rotatable=0;points=[[0,0.5],[1,0.5]];portConstraint=eastwest;whiteSpace=wrap;html=1;rotation=0;" parent="EIWtW14MWvJl-eXGEkqy-44" vertex="1">
          <mxGeometry y="26" width="390" height="40" as="geometry" />
        </mxCell>
        <mxCell id="EIWtW14MWvJl-eXGEkqy-46" value="" style="line;strokeWidth=1;fillColor=none;align=left;verticalAlign=middle;spacingTop=-1;spacingLeft=3;spacingRight=3;rotatable=0;labelPosition=right;points=[];portConstraint=eastwest;strokeColor=inherit;" parent="EIWtW14MWvJl-eXGEkqy-44" vertex="1">
          <mxGeometry y="66" width="390" height="8" as="geometry" />
        </mxCell>
        <mxCell id="EIWtW14MWvJl-eXGEkqy-47" value="&lt;p  style=&quot;border-color: var(--border-color); margin: 0px 0px 0px  4px;&quot;&gt;+ GetEditions()&lt;/p&gt;&lt;p style=&quot;border-color:  var(--border-color); margin: 0px 0px 0px 4px;&quot;&gt;+  AddEdition(edition: Edition)&lt;/p&gt;&lt;p style=&quot;border-color:  var(--border-color); margin: 0px 0px 0px 4px;&quot;&gt;+  RemoveEdition(edition: Edition)&lt;/p&gt;&lt;p style=&quot;border-color:  var(--border-color); margin: 0px 0px 0px 4px;&quot;&gt;+  GetAutor()&lt;/p&gt;&lt;p style=&quot;border-color: var(--border-color);  margin: 0px 0px 0px 4px;&quot;&gt;+ SetAutor(autor: Author)&lt;/p&gt;" style="text;strokeColor=none;fillColor=none;align=left;verticalAlign=top;spacingLeft=4;spacingRight=4;overflow=hidden;rotatable=0;points=[[0,0.5],[1,0.5]];portConstraint=eastwest;whiteSpace=wrap;html=1;rotation=0;" parent="EIWtW14MWvJl-eXGEkqy-44" vertex="1">
          <mxGeometry y="74" width="390" height="86" as="geometry" />
        </mxCell>
        <mxCell id="EIWtW14MWvJl-eXGEkqy-52" value="&lt;font  style=&quot;font-size: 14px;&quot;&gt;Library&lt;/font&gt;" style="swimlane;fontStyle=1;align=center;verticalAlign=top;childLayout=stackLayout;horizontal=1;startSize=26;horizontalStack=0;resizeParent=1;resizeParentMax=0;resizeLast=0;collapsible=1;marginBottom=0;whiteSpace=wrap;html=1;fillColor=#dae8fc;strokeColor=#6c8ebf;" parent="1" vertex="1">
          <mxGeometry x="-2426" y="-1900" width="340" height="530" as="geometry" />
        </mxCell>
        <mxCell id="EIWtW14MWvJl-eXGEkqy-53" value="- _books:  List&amp;lt;Book&amp;gt;&lt;br&gt;- _generics:  List&amp;lt;Generic&amp;gt;&lt;br&gt;- _topics:  List&amp;lt;Topic&amp;gt;&lt;br&gt;- _autors:  List&amp;lt;Autor&amp;gt;&lt;br&gt;- _publishers:  List&amp;lt;Publisher&amp;gt;&lt;br&gt;- _languages:  List&amp;lt;Language&amp;gt;&lt;br&gt;- _locations:  List&amp;lt;Location&amp;gt;&lt;br&gt;- _payments:  List&amp;lt;Payment&amp;gt;&lt;br&gt;- _users:  List&amp;lt;Users&amp;gt;&lt;br&gt;- _employees:  List&amp;lt;Empolyee&amp;gt;" style="text;strokeColor=none;fillColor=none;align=left;verticalAlign=top;spacingLeft=4;spacingRight=4;overflow=hidden;rotatable=0;points=[[0,0.5],[1,0.5]];portConstraint=eastwest;whiteSpace=wrap;html=1;" parent="EIWtW14MWvJl-eXGEkqy-52" vertex="1">
          <mxGeometry y="26" width="340" height="154" as="geometry" />
        </mxCell>
        <mxCell id="EIWtW14MWvJl-eXGEkqy-54" value="" style="line;strokeWidth=1;fillColor=none;align=left;verticalAlign=middle;spacingTop=-1;spacingLeft=3;spacingRight=3;rotatable=0;labelPosition=right;points=[];portConstraint=eastwest;strokeColor=inherit;" parent="EIWtW14MWvJl-eXGEkqy-52" vertex="1">
          <mxGeometry y="180" width="340" height="8" as="geometry" />
        </mxCell>
        <mxCell id="EIWtW14MWvJl-eXGEkqy-55" value="&lt;p  style=&quot;border-color: var(--border-color); margin: 0px 0px 0px  4px;&quot;&gt;+ GetBooks()&lt;/p&gt;&lt;p style=&quot;border-color:  var(--border-color); margin: 0px 0px 0px 4px;&quot;&gt;+ AddBook(topic:  Topic, generics: List&amp;lt;Generic&amp;gt;, autors:  List&amp;lt;Autor&amp;gt;, publishers: List&amp;lt;Publisher&amp;gt;,  language: Language)&lt;/p&gt;&lt;p style=&quot;border-color:  var(--border-color); margin: 0px 0px 0px 4px;&quot;&gt;+ RemoveBook(book:  Book)&lt;/p&gt;&lt;p style=&quot;border-color: var(--border-color);  margin: 0px 0px 0px 4px;&quot;&gt;+ GetGenerics()&lt;/p&gt;&lt;p  style=&quot;border-color: var(--border-color); margin: 0px 0px 0px  4px;&quot;&gt;+ GetTopics()&lt;/p&gt;&lt;p style=&quot;border-color:  var(--border-color); margin: 0px 0px 0px 4px;&quot;&gt;+  GetAutors()&lt;/p&gt;&lt;p style=&quot;border-color: var(--border-color);  margin: 0px 0px 0px 4px;&quot;&gt;+ GetPublishers()&lt;/p&gt;&lt;p  style=&quot;border-color: var(--border-color); margin: 0px 0px 0px  4px;&quot;&gt;+ GetLanguages()&lt;/p&gt;&lt;p style=&quot;border-color:  var(--border-color); margin: 0px 0px 0px 4px;&quot;&gt;+  GetLocations()&lt;/p&gt;&lt;p style=&quot;border-color:  var(--border-color); margin: 0px 0px 0px 4px;&quot;&gt;+  GetUsers()&lt;/p&gt;&lt;p style=&quot;border-color: var(--border-color);  margin: 0px 0px 0px 4px;&quot;&gt;+ AddUser(firstName: String, lastName:  String, pesel: String, email: String, phoneNumber: String)&lt;/p&gt;&lt;p  style=&quot;border-color: var(--border-color); margin: 0px 0px 0px  4px;&quot;&gt;+ RemoveUser(user: User)&lt;/p&gt;&lt;p  style=&quot;border-color: var(--border-color); margin: 0px 0px 0px  4px;&quot;&gt;+ GetEmployees&lt;/p&gt;&lt;p style=&quot;border-color:  var(--border-color); margin: 0px 0px 0px 4px;&quot;&gt;+  AddEmployee(firstName: String, lastName: String, pesel: String, email:  String, phoneNumber: String)&lt;/p&gt;&lt;p style=&quot;border-color:  var(--border-color); margin: 0px 0px 0px 4px;&quot;&gt;+ AddEmployee(user:  User)&lt;/p&gt;&lt;p style=&quot;border-color: var(--border-color);  margin: 0px 0px 0px 4px;&quot;&gt;+ RemoveEmployee(employee:  Employee)&lt;/p&gt;&lt;p style=&quot;border-color: var(--border-color);  margin: 0px 0px 0px 4px;&quot;&gt;+ GetPayments()&lt;/p&gt;&lt;p  style=&quot;border-color: var(--border-color); margin: 0px 0px 0px  4px;&quot;&gt;+ AddPayment(deptor: User, price: Decimal, deadline:  Date)&lt;/p&gt;&lt;p style=&quot;border-color: var(--border-color);  margin: 0px 0px 0px 4px;&quot;&gt;+ RemovePayment(payment:  Payment)&lt;/p&gt;" style="text;strokeColor=none;fillColor=none;align=left;verticalAlign=top;spacingLeft=4;spacingRight=4;overflow=hidden;rotatable=0;points=[[0,0.5],[1,0.5]];portConstraint=eastwest;whiteSpace=wrap;html=1;rotation=0;" parent="EIWtW14MWvJl-eXGEkqy-52" vertex="1">
          <mxGeometry y="188" width="340" height="342" as="geometry" />
        </mxCell>
        <mxCell id="XDDPpy6xa9LlmRaPZi7B-1" value="&lt;b  style=&quot;border-color: var(--border-color);&quot;&gt;&lt;font  style=&quot;font-size: 14px;&quot;&gt;BorrowedCopy&lt;/font&gt;&lt;/b&gt;" style="swimlane;fontStyle=1;align=center;verticalAlign=top;childLayout=stackLayout;horizontal=1;startSize=26;horizontalStack=0;resizeParent=1;resizeParentMax=0;resizeLast=0;collapsible=1;marginBottom=0;whiteSpace=wrap;html=1;fillColor=#dae8fc;strokeColor=#6c8ebf;" parent="1" vertex="1">
          <mxGeometry x="-936" y="-3080" width="330" height="180" as="geometry" />
        </mxCell>
        <mxCell id="XDDPpy6xa9LlmRaPZi7B-2" value="&lt;p  style=&quot;border-color: var(--border-color); margin: 0px 0px 0px  4px;&quot;&gt;- _bookCopyID: String&lt;/p&gt;&lt;p  style=&quot;border-color: var(--border-color); margin: 0px 0px 0px  4px;&quot;&gt;- _section: Section&lt;/p&gt;&lt;p style=&quot;border-color:  var(--border-color); margin: 0px 0px 0px 4px;&quot;&gt;- _borrower:  User&lt;br&gt;&lt;/p&gt;&lt;p style=&quot;border-color:  var(--border-color); margin: 0px 0px 0px 4px;&quot;&gt;&lt;span  style=&quot;background-color: initial;&quot;&gt;- _borrowedDate:  Date&lt;/span&gt;&lt;/p&gt;" style="text;strokeColor=none;fillColor=none;align=left;verticalAlign=top;spacingLeft=4;spacingRight=4;overflow=hidden;rotatable=0;points=[[0,0.5],[1,0.5]];portConstraint=eastwest;whiteSpace=wrap;html=1;rotation=0;" parent="XDDPpy6xa9LlmRaPZi7B-1" vertex="1">
          <mxGeometry y="26" width="330" height="62" as="geometry" />
        </mxCell>
        <mxCell id="XDDPpy6xa9LlmRaPZi7B-3" value="" style="line;strokeWidth=1;fillColor=none;align=left;verticalAlign=middle;spacingTop=-1;spacingLeft=3;spacingRight=3;rotatable=0;labelPosition=right;points=[];portConstraint=eastwest;strokeColor=inherit;" parent="XDDPpy6xa9LlmRaPZi7B-1" vertex="1">
          <mxGeometry y="88" width="330" height="8" as="geometry" />
        </mxCell>
        <mxCell id="XDDPpy6xa9LlmRaPZi7B-4" value="&lt;p  style=&quot;border-color: var(--border-color); margin: 0px 0px 0px  4px;&quot;&gt;+ ReturnBook()&lt;/p&gt;&lt;p style=&quot;border-color:  var(--border-color); margin: 0px 0px 0px 4px;&quot;&gt;+ IsAvaible()&lt;br  style=&quot;border-color: var(--border-color);&quot;&gt;+  IsBorrowed()&lt;br style=&quot;border-color:  var(--border-color);&quot;&gt;+ IsOrdered()&lt;br  style=&quot;border-color: var(--border-color);&quot;&gt;+  GetDueDate()&lt;br&gt;&lt;/p&gt;" style="text;strokeColor=none;fillColor=none;align=left;verticalAlign=top;spacingLeft=4;spacingRight=4;overflow=hidden;rotatable=0;points=[[0,0.5],[1,0.5]];portConstraint=eastwest;whiteSpace=wrap;html=1;rotation=0;" parent="XDDPpy6xa9LlmRaPZi7B-1" vertex="1">
          <mxGeometry y="96" width="330" height="84" as="geometry" />
        </mxCell>
        <mxCell id="XDDPpy6xa9LlmRaPZi7B-5" value="&lt;b  style=&quot;border-color: var(--border-color);&quot;&gt;&lt;font  style=&quot;font-size: 14px;&quot;&gt;ReservedCopy&lt;/font&gt;&lt;/b&gt;" style="swimlane;fontStyle=1;align=center;verticalAlign=top;childLayout=stackLayout;horizontal=1;startSize=26;horizontalStack=0;resizeParent=1;resizeParentMax=0;resizeLast=0;collapsible=1;marginBottom=0;whiteSpace=wrap;html=1;fillColor=#dae8fc;strokeColor=#6c8ebf;" parent="1" vertex="1">
          <mxGeometry x="-936" y="-2870" width="330" height="190" as="geometry" />
        </mxCell>
        <mxCell id="XDDPpy6xa9LlmRaPZi7B-6" value="&lt;p  style=&quot;border-color: var(--border-color); margin: 0px 0px 0px  4px;&quot;&gt;- _bookCopyID: String&lt;/p&gt;&lt;p  style=&quot;border-color: var(--border-color); margin: 0px 0px 0px  4px;&quot;&gt;- _section: Section&lt;/p&gt;&lt;p style=&quot;border-color:  var(--border-color); margin: 0px 0px 0px 4px;&quot;&gt;- _borrower:  User&lt;br&gt;&lt;/p&gt;&lt;p style=&quot;border-color:  var(--border-color); margin: 0px 0px 0px 4px;&quot;&gt;&lt;span  style=&quot;background-color: initial;&quot;&gt;- _reservedDate:  Date&lt;/span&gt;&lt;/p&gt;" style="text;strokeColor=none;fillColor=none;align=left;verticalAlign=top;spacingLeft=4;spacingRight=4;overflow=hidden;rotatable=0;points=[[0,0.5],[1,0.5]];portConstraint=eastwest;whiteSpace=wrap;html=1;rotation=0;" parent="XDDPpy6xa9LlmRaPZi7B-5" vertex="1">
          <mxGeometry y="26" width="330" height="60" as="geometry" />
        </mxCell>
        <mxCell id="XDDPpy6xa9LlmRaPZi7B-7" value="" style="line;strokeWidth=1;fillColor=none;align=left;verticalAlign=middle;spacingTop=-1;spacingLeft=3;spacingRight=3;rotatable=0;labelPosition=right;points=[];portConstraint=eastwest;strokeColor=inherit;" parent="XDDPpy6xa9LlmRaPZi7B-5" vertex="1">
          <mxGeometry y="86" width="330" height="8" as="geometry" />
        </mxCell>
        <mxCell id="XDDPpy6xa9LlmRaPZi7B-8" value="&lt;p  style=&quot;border-color: var(--border-color); margin: 0px 0px 0px  4px;&quot;&gt;+ ChancelReservation()&lt;/p&gt;&lt;p  style=&quot;border-color: var(--border-color); margin: 0px 0px 0px  4px;&quot;&gt;+ CollectReservation()&lt;/p&gt;&lt;p  style=&quot;border-color: var(--border-color); margin: 0px 0px 0px  4px;&quot;&gt;+ IsAvaible()&lt;br style=&quot;border-color:  var(--border-color);&quot;&gt;+ IsBorrowed()&lt;br  style=&quot;border-color: var(--border-color);&quot;&gt;+  IsOrdered()&lt;br style=&quot;border-color:  var(--border-color);&quot;&gt;+ GetDueDate()&lt;br&gt;&lt;/p&gt;" style="text;strokeColor=none;fillColor=none;align=left;verticalAlign=top;spacingLeft=4;spacingRight=4;overflow=hidden;rotatable=0;points=[[0,0.5],[1,0.5]];portConstraint=eastwest;whiteSpace=wrap;html=1;rotation=0;" parent="XDDPpy6xa9LlmRaPZi7B-5" vertex="1">
          <mxGeometry y="94" width="330" height="96" as="geometry" />
        </mxCell>
        <mxCell id="XDDPpy6xa9LlmRaPZi7B-13" value="&lt;font  style=&quot;font-size: 14px;&quot;&gt;User&lt;/font&gt;" style="swimlane;fontStyle=1;align=center;verticalAlign=top;childLayout=stackLayout;horizontal=1;startSize=26;horizontalStack=0;resizeParent=1;resizeParentMax=0;resizeLast=0;collapsible=1;marginBottom=0;whiteSpace=wrap;html=1;fillColor=#dae8fc;strokeColor=#6c8ebf;" parent="1" vertex="1">
          <mxGeometry x="-2416" y="-1240" width="340" height="370" as="geometry" />
        </mxCell>
        <mxCell id="XDDPpy6xa9LlmRaPZi7B-14" value="&lt;div&gt;- _userID:  String&lt;/div&gt;&lt;div&gt;- _firstName: String&lt;/div&gt;&lt;div&gt;-  _lastName: String&lt;/div&gt;&lt;div&gt;- _email:  String&lt;/div&gt;&lt;div&gt;- _phoneNumber:  String&lt;/div&gt;&lt;div&gt;- _address: String&lt;/div&gt;&lt;div&gt;-  _dateOfBirth: Date&lt;/div&gt;&lt;div&gt;- _password:  String&lt;/div&gt;&lt;div&gt;- _libraryCardNumber:  String&lt;/div&gt;&lt;div&gt;- _booksBorrowed:  List&amp;lt;BorrowedCopy&amp;gt;&lt;/div&gt;&lt;div&gt;- _booksReserved:  List&amp;lt;ReservedCopy&amp;gt;&lt;/div&gt;&lt;div&gt;- _userPayments:  List&amp;lt;Payment&amp;gt;&lt;/div&gt;&lt;div&gt;- _state:  State&lt;/div&gt;" style="text;strokeColor=none;fillColor=none;align=left;verticalAlign=top;spacingLeft=4;spacingRight=4;overflow=hidden;rotatable=0;points=[[0,0.5],[1,0.5]];portConstraint=eastwest;whiteSpace=wrap;html=1;" parent="XDDPpy6xa9LlmRaPZi7B-13" vertex="1">
          <mxGeometry y="26" width="340" height="194" as="geometry" />
        </mxCell>
        <mxCell id="XDDPpy6xa9LlmRaPZi7B-15" value="" style="line;strokeWidth=1;fillColor=none;align=left;verticalAlign=middle;spacingTop=-1;spacingLeft=3;spacingRight=3;rotatable=0;labelPosition=right;points=[];portConstraint=eastwest;strokeColor=inherit;" parent="XDDPpy6xa9LlmRaPZi7B-13" vertex="1">
          <mxGeometry y="220" width="340" height="8" as="geometry" />
        </mxCell>
        <mxCell id="XDDPpy6xa9LlmRaPZi7B-16" value="&lt;p  style=&quot;border-color: var(--border-color); margin: 0px 0px 0px  4px;&quot;&gt;+ GetUserID()&lt;/p&gt;&lt;p style=&quot;border-color:  var(--border-color); margin: 0px 0px 0px 4px;&quot;&gt;+ &quot;Get i Set  dla wszystkich danych osobowych&quot;&lt;/p&gt;&lt;p  style=&quot;border-color: var(--border-color); margin: 0px 0px 0px  4px;&quot;&gt;+ GetLibaryCardNumber()&lt;/p&gt;&lt;p  style=&quot;border-color: var(--border-color); margin: 0px 0px 0px  4px;&quot;&gt;+ GetBorrowedBooks()&lt;/p&gt;&lt;p  style=&quot;border-color: var(--border-color); margin: 0px 0px 0px  4px;&quot;&gt;+ GetReservedBooks()&lt;/p&gt;&lt;p  style=&quot;border-color: var(--border-color); margin: 0px 0px 0px  4px;&quot;&gt;+ ReserveBook(bookCopy: BookCopy, date: Date)&lt;/p&gt;&lt;p  style=&quot;border-color: var(--border-color); margin: 0px 0px 0px  4px;&quot;&gt;+ CancelBook(reservedCopy: ReservedCopy)&lt;/p&gt;&lt;p  style=&quot;border-color: var(--border-color); margin: 0px 0px 0px  4px;&quot;&gt;+ GetPayments()&lt;/p&gt;&lt;p style=&quot;border-color:  var(--border-color); margin: 0px 0px 0px 4px;&quot;&gt;+ Pay(payment:  Payment)&lt;/p&gt;&lt;p style=&quot;border-color: var(--border-color);  margin: 0px 0px 0px 4px;&quot;&gt;&lt;br&gt;&lt;/p&gt;" style="text;strokeColor=none;fillColor=none;align=left;verticalAlign=top;spacingLeft=4;spacingRight=4;overflow=hidden;rotatable=0;points=[[0,0.5],[1,0.5]];portConstraint=eastwest;whiteSpace=wrap;html=1;rotation=0;" parent="XDDPpy6xa9LlmRaPZi7B-13" vertex="1">
          <mxGeometry y="228" width="340" height="142" as="geometry" />
        </mxCell>
        <mxCell id="XDDPpy6xa9LlmRaPZi7B-17" value="&lt;font  style=&quot;font-size: 14px;&quot;&gt;Employee&lt;/font&gt;" style="swimlane;fontStyle=1;align=center;verticalAlign=top;childLayout=stackLayout;horizontal=1;startSize=26;horizontalStack=0;resizeParent=1;resizeParentMax=0;resizeLast=0;collapsible=1;marginBottom=0;whiteSpace=wrap;html=1;fillColor=#dae8fc;strokeColor=#6c8ebf;" parent="1" vertex="1">
          <mxGeometry x="-2666" y="-720" width="340" height="420" as="geometry" />
        </mxCell>
        <mxCell id="XDDPpy6xa9LlmRaPZi7B-18" value="&lt;div&gt;&lt;div&gt;- _userID: String&lt;/div&gt;&lt;div&gt;-  _firstName: String&lt;/div&gt;&lt;div&gt;- _lastName:  String&lt;/div&gt;&lt;div&gt;- _email: String&lt;/div&gt;&lt;div&gt;-  _phoneNumber: String&lt;/div&gt;&lt;div&gt;- _address:  String&lt;/div&gt;&lt;div&gt;- _dateOfBirth: Date&lt;/div&gt;&lt;div&gt;-  _password: String&lt;/div&gt;&lt;div&gt;- _libraryCardNumber:  String&lt;/div&gt;&lt;div&gt;- _booksBorrowed:  List&amp;lt;BorrowedCopy&amp;gt;&lt;/div&gt;&lt;div&gt;- _booksReserved:  List&amp;lt;ReservedCopy&amp;gt;&lt;/div&gt;&lt;div&gt;- _userPayments:  List&amp;lt;Payment&amp;gt;&lt;/div&gt;&lt;div&gt;- _state:  State&lt;/div&gt;&lt;/div&gt;&lt;div&gt;&lt;br&gt;&lt;/div&gt;&lt;div&gt;-  _salary: Decimal&lt;/div&gt;&lt;div&gt;- _hireDate: Date&lt;/div&gt;" style="text;strokeColor=none;fillColor=none;align=left;verticalAlign=top;spacingLeft=4;spacingRight=4;overflow=hidden;rotatable=0;points=[[0,0.5],[1,0.5]];portConstraint=eastwest;whiteSpace=wrap;html=1;" parent="XDDPpy6xa9LlmRaPZi7B-17" vertex="1">
          <mxGeometry y="26" width="340" height="234" as="geometry" />
        </mxCell>
        <mxCell id="XDDPpy6xa9LlmRaPZi7B-19" value="" style="line;strokeWidth=1;fillColor=none;align=left;verticalAlign=middle;spacingTop=-1;spacingLeft=3;spacingRight=3;rotatable=0;labelPosition=right;points=[];portConstraint=eastwest;strokeColor=inherit;" parent="XDDPpy6xa9LlmRaPZi7B-17" vertex="1">
          <mxGeometry y="260" width="340" height="8" as="geometry" />
        </mxCell>
        <mxCell id="XDDPpy6xa9LlmRaPZi7B-20" value="&lt;p  style=&quot;border-color: var(--border-color); margin: 0px 0px 0px  4px;&quot;&gt;+ GetSalary()&lt;/p&gt;&lt;p style=&quot;border-color:  var(--border-color); margin: 0px 0px 0px 4px;&quot;&gt;+  GetHireDate()&lt;/p&gt;&lt;p style=&quot;border-color:  var(--border-color); margin: 0px 0px 0px 4px;&quot;&gt;+  RegisterUser(&quot;wszystkie dane usera&quot;)&lt;/p&gt;&lt;p  style=&quot;border-color: var(--border-color); margin: 0px 0px 0px  4px;&quot;&gt;+ MakePayment(deptor: User, price: Decimal, deadline: Date,  reason: String)&lt;/p&gt;&lt;p style=&quot;border-color:  var(--border-color); margin: 0px 0px 0px 4px;&quot;&gt;+ Pay(user: User,  payment: Payment)&lt;/p&gt;&lt;p style=&quot;border-color:  var(--border-color); margin: 0px 0px 0px 4px;&quot;&gt;+  ExtendReturnDate(borrowedBook: BorrowedBook)&lt;/p&gt;&lt;p  style=&quot;border-color: var(--border-color); margin: 0px 0px 0px  4px;&quot;&gt;+ Ban(user: User)&lt;/p&gt;&lt;p style=&quot;border-color:  var(--border-color); margin: 0px 0px 0px 4px;&quot;&gt;+  MarkAsDamaged(bookCopy: BookCopy, dameger: User, damegedDate:  Date)&lt;/p&gt;" style="text;strokeColor=none;fillColor=none;align=left;verticalAlign=top;spacingLeft=4;spacingRight=4;overflow=hidden;rotatable=0;points=[[0,0.5],[1,0.5]];portConstraint=eastwest;whiteSpace=wrap;html=1;rotation=0;" parent="XDDPpy6xa9LlmRaPZi7B-17" vertex="1">
          <mxGeometry y="268" width="340" height="152" as="geometry" />
        </mxCell>
        <mxCell id="XDDPpy6xa9LlmRaPZi7B-21" value="&lt;font  style=&quot;font-size: 14px;&quot;&gt;Admin&lt;/font&gt;" style="swimlane;fontStyle=1;align=center;verticalAlign=top;childLayout=stackLayout;horizontal=1;startSize=26;horizontalStack=0;resizeParent=1;resizeParentMax=0;resizeLast=0;collapsible=1;marginBottom=0;whiteSpace=wrap;html=1;fillColor=#dae8fc;strokeColor=#6c8ebf;" parent="1" vertex="1">
          <mxGeometry x="-2166" y="-720" width="340" height="510" as="geometry" />
        </mxCell>
        <mxCell id="XDDPpy6xa9LlmRaPZi7B-22" value="&lt;div  style=&quot;border-color: var(--border-color);&quot;&gt;&lt;div  style=&quot;border-color: var(--border-color);&quot;&gt;- _userID:  String&lt;/div&gt;&lt;div style=&quot;border-color:  var(--border-color);&quot;&gt;- _firstName: String&lt;/div&gt;&lt;div  style=&quot;border-color: var(--border-color);&quot;&gt;- _lastName:  String&lt;/div&gt;&lt;div style=&quot;border-color:  var(--border-color);&quot;&gt;- _email: String&lt;/div&gt;&lt;div  style=&quot;border-color: var(--border-color);&quot;&gt;- _phoneNumber:  String&lt;/div&gt;&lt;div style=&quot;border-color:  var(--border-color);&quot;&gt;- _address: String&lt;/div&gt;&lt;div  style=&quot;border-color: var(--border-color);&quot;&gt;- _dateOfBirth:  Date&lt;/div&gt;&lt;div style=&quot;border-color:  var(--border-color);&quot;&gt;- _password: String&lt;/div&gt;&lt;div  style=&quot;border-color: var(--border-color);&quot;&gt;-  _libraryCardNumber: String&lt;/div&gt;&lt;div style=&quot;border-color:  var(--border-color);&quot;&gt;- _booksBorrowed:  List&amp;lt;BorrowedCopy&amp;gt;&lt;/div&gt;&lt;div  style=&quot;border-color: var(--border-color);&quot;&gt;- _booksReserved:  List&amp;lt;ReservedCopy&amp;gt;&lt;/div&gt;&lt;div  style=&quot;border-color: var(--border-color);&quot;&gt;- _userPayments:  List&amp;lt;Payment&amp;gt;&lt;/div&gt;&lt;div style=&quot;border-color:  var(--border-color);&quot;&gt;- _state:  State&lt;/div&gt;&lt;/div&gt;&lt;div style=&quot;border-color:  var(--border-color);&quot;&gt;&lt;br&gt;&lt;/div&gt;&lt;div  style=&quot;border-color:  var(--border-color);&quot;&gt;&lt;br&gt;&lt;/div&gt;" style="text;strokeColor=none;fillColor=none;align=left;verticalAlign=top;spacingLeft=4;spacingRight=4;overflow=hidden;rotatable=0;points=[[0,0.5],[1,0.5]];portConstraint=eastwest;whiteSpace=wrap;html=1;" parent="XDDPpy6xa9LlmRaPZi7B-21" vertex="1">
          <mxGeometry y="26" width="340" height="194" as="geometry" />
        </mxCell>
        <mxCell id="XDDPpy6xa9LlmRaPZi7B-23" value="" style="line;strokeWidth=1;fillColor=none;align=left;verticalAlign=middle;spacingTop=-1;spacingLeft=3;spacingRight=3;rotatable=0;labelPosition=right;points=[];portConstraint=eastwest;strokeColor=inherit;" parent="XDDPpy6xa9LlmRaPZi7B-21" vertex="1">
          <mxGeometry y="220" width="340" height="8" as="geometry" />
        </mxCell>
        <mxCell id="XDDPpy6xa9LlmRaPZi7B-24" value="&lt;p  style=&quot;border-color: var(--border-color); margin: 0px 0px 0px  4px;&quot;&gt;+ AddBook(&quot;informacje o książce&quot;)&lt;/p&gt;&lt;p  style=&quot;border-color: var(--border-color); margin: 0px 0px 0px  4px;&quot;&gt;+ RemoveBook(book: Book)&lt;/p&gt;&lt;p  style=&quot;border-color: var(--border-color); margin: 0px 0px 0px  4px;&quot;&gt;+ EditBook(book: Book, &quot;nowe informacje o  książce&quot;)&lt;/p&gt;&lt;p style=&quot;border-color:  var(--border-color); margin: 0px 0px 0px 4px;&quot;&gt;+  MakePayment(deptor: User, price: Decimal, deadline: Date, reason:  String)&lt;/p&gt;&lt;p style=&quot;border-color: var(--border-color);  margin: 0px 0px 0px 4px;&quot;&gt;+ RegisterUser(&quot;wszystkie dane  usera&quot;)&lt;/p&gt;&lt;p style=&quot;border-color: var(--border-color);  margin: 0px 0px 0px 4px;&quot;&gt;+ RemoveUser(user: User)&lt;/p&gt;&lt;p  style=&quot;border-color: var(--border-color); margin: 0px 0px 0px  4px;&quot;&gt;+ BanUser(user: User)&lt;/p&gt;&lt;p  style=&quot;border-color: var(--border-color); margin: 0px 0px 0px  4px;&quot;&gt;+ UnbanUser(user:User)&lt;/p&gt;&lt;p  style=&quot;border-color: var(--border-color); margin: 0px 0px 0px  4px;&quot;&gt;+ MakePayment(deptor: User, price: Decimal, deadline: Date,  reason: String)&lt;/p&gt;&lt;p style=&quot;border-color:  var(--border-color); margin: 0px 0px 0px 4px;&quot;&gt;+  RemovePayment(payment: Payment)&lt;/p&gt;&lt;p style=&quot;border-color:  var(--border-color); margin: 0px 0px 0px 4px;&quot;&gt;+  ExtendReturnDate(borrowedBook: BorrowedBook)&lt;/p&gt;&lt;p  style=&quot;border-color: var(--border-color); margin: 0px 0px 0px  4px;&quot;&gt;+ ExtendPaymentDeadline(payment: Payment)&lt;/p&gt;&lt;p  style=&quot;border-color: var(--border-color); margin: 0px 0px 0px  4px;&quot;&gt;+ PromoteToEmployee(user: User, salary: Decimal, hireDate:  Date)&lt;/p&gt;&lt;p style=&quot;border-color: var(--border-color);  margin: 0px 0px 0px 4px;&quot;&gt;+&amp;nbsp;MarkAsDamaged(bookCopy:  BookCopy, dameger: User, damegedDate: Date)&lt;/p&gt;&lt;p  style=&quot;border-color: var(--border-color); margin: 0px 0px 0px  4px;&quot;&gt;+ Restore(damagedCopy: DamegedCopy)&lt;/p&gt;" style="text;strokeColor=none;fillColor=none;align=left;verticalAlign=top;spacingLeft=4;spacingRight=4;overflow=hidden;rotatable=0;points=[[0,0.5],[1,0.5]];portConstraint=eastwest;whiteSpace=wrap;html=1;rotation=0;" parent="XDDPpy6xa9LlmRaPZi7B-21" vertex="1">
          <mxGeometry y="228" width="340" height="282" as="geometry" />
        </mxCell>
        <mxCell id="XDDPpy6xa9LlmRaPZi7B-25" value="" style="endArrow=diamondThin;endFill=1;endSize=24;html=1;rounded=0;entryX=1;entryY=0.5;entryDx=0;entryDy=0;exitX=0;exitY=0.5;exitDx=0;exitDy=0;" parent="1" source="EIWtW14MWvJl-eXGEkqy-41" target="FMBArwRHaRoccxMsV3ws-12" edge="1">
          <mxGeometry width="160" relative="1" as="geometry">
            <mxPoint x="-2586" y="-2290" as="sourcePoint" />
            <mxPoint x="-2426" y="-2290" as="targetPoint" />
          </mxGeometry>
        </mxCell>
        <mxCell id="XDDPpy6xa9LlmRaPZi7B-26" value="" style="endArrow=diamondThin;endFill=1;endSize=24;html=1;rounded=0;entryX=1;entryY=0.5;entryDx=0;entryDy=0;exitX=0;exitY=0.5;exitDx=0;exitDy=0;" parent="1" source="FMBArwRHaRoccxMsV3ws-42" target="EIWtW14MWvJl-eXGEkqy-41" edge="1">
          <mxGeometry width="160" relative="1" as="geometry">
            <mxPoint x="-2586" y="-2430" as="sourcePoint" />
            <mxPoint x="-2426" y="-2430" as="targetPoint" />
          </mxGeometry>
        </mxCell>
        <mxCell id="XDDPpy6xa9LlmRaPZi7B-30" value="" style="endArrow=diamondThin;endFill=0;endSize=24;html=1;rounded=0;edgeStyle=orthogonalEdgeStyle;" parent="1" source="EIWtW14MWvJl-eXGEkqy-44" target="EIWtW14MWvJl-eXGEkqy-43" edge="1">
          <mxGeometry width="160" relative="1" as="geometry">
            <mxPoint x="-2386" y="-2430" as="sourcePoint" />
            <mxPoint x="-2226" y="-2430" as="targetPoint" />
            <Array as="points">
              <mxPoint x="-2886" y="-2500" />
              <mxPoint x="-2401" y="-2500" />
            </Array>
          </mxGeometry>
        </mxCell>
        <mxCell id="XDDPpy6xa9LlmRaPZi7B-31" value="" style="endArrow=diamondThin;endFill=1;endSize=24;html=1;rounded=0;" parent="1" source="EIWtW14MWvJl-eXGEkqy-47" target="FMBArwRHaRoccxMsV3ws-24" edge="1">
          <mxGeometry width="160" relative="1" as="geometry">
            <mxPoint x="-2756" y="-2290" as="sourcePoint" />
            <mxPoint x="-2596" y="-2290" as="targetPoint" />
          </mxGeometry>
        </mxCell>
        <mxCell id="XDDPpy6xa9LlmRaPZi7B-32" value="" style="endArrow=block;endSize=16;endFill=0;html=1;rounded=0;edgeStyle=orthogonalEdgeStyle;" parent="1" source="XDDPpy6xa9LlmRaPZi7B-1" target="FMBArwRHaRoccxMsV3ws-41" edge="1">
          <mxGeometry width="160" relative="1" as="geometry">
            <mxPoint x="-1591" y="-2537" as="sourcePoint" />
            <mxPoint x="-1431" y="-2537" as="targetPoint" />
            <Array as="points">
              <mxPoint x="-976" y="-2937" />
              <mxPoint x="-976" y="-2727" />
            </Array>
          </mxGeometry>
        </mxCell>
        <mxCell id="XDDPpy6xa9LlmRaPZi7B-33" value="" style="endArrow=block;endSize=16;endFill=0;html=1;rounded=0;edgeStyle=orthogonalEdgeStyle;" parent="1" source="XDDPpy6xa9LlmRaPZi7B-5" target="FMBArwRHaRoccxMsV3ws-41" edge="1">
          <mxGeometry width="160" relative="1" as="geometry">
            <mxPoint x="-965" y="-2777" as="sourcePoint" />
            <mxPoint x="-1077" y="-2747" as="targetPoint" />
            <Array as="points">
              <mxPoint x="-976" y="-2772" />
              <mxPoint x="-976" y="-2727" />
            </Array>
          </mxGeometry>
        </mxCell>
        <mxCell id="XDDPpy6xa9LlmRaPZi7B-34" value="" style="endArrow=block;endSize=16;endFill=0;html=1;rounded=0;edgeStyle=orthogonalEdgeStyle;" parent="1" source="3VBd_VB_IdiQkLcemd7t-5" target="FMBArwRHaRoccxMsV3ws-41" edge="1">
          <mxGeometry width="160" relative="1" as="geometry">
            <mxPoint x="-991" y="-2603" as="sourcePoint" />
            <mxPoint x="-1061" y="-2707" as="targetPoint" />
            <Array as="points">
              <mxPoint x="-976" y="-2527" />
              <mxPoint x="-976" y="-2727" />
            </Array>
          </mxGeometry>
        </mxCell>
        <mxCell id="XDDPpy6xa9LlmRaPZi7B-35" value="" style="endArrow=diamondThin;endFill=0;endSize=24;html=1;rounded=0;" parent="1" source="EIWtW14MWvJl-eXGEkqy-2" target="FMBArwRHaRoccxMsV3ws-41" edge="1">
          <mxGeometry width="160" relative="1" as="geometry">
            <mxPoint x="-1511" y="-2357" as="sourcePoint" />
            <mxPoint x="-1351" y="-2357" as="targetPoint" />
          </mxGeometry>
        </mxCell>
        <mxCell id="XDDPpy6xa9LlmRaPZi7B-36" value="&lt;font  style=&quot;font-size: 14px;&quot;&gt;Location&lt;/font&gt;" style="swimlane;fontStyle=1;align=center;verticalAlign=top;childLayout=stackLayout;horizontal=1;startSize=26;horizontalStack=0;resizeParent=1;resizeParentMax=0;resizeLast=0;collapsible=1;marginBottom=0;whiteSpace=wrap;html=1;fillColor=#dae8fc;strokeColor=#6c8ebf;" parent="1" vertex="1">
          <mxGeometry x="-1406" y="-2170" width="340" height="120" as="geometry" />
        </mxCell>
        <mxCell id="XDDPpy6xa9LlmRaPZi7B-37" value="&lt;p  style=&quot;border-color: var(--border-color); margin: 0px 0px 0px  4px;&quot;&gt;- _locationID: String&lt;/p&gt;&lt;p  style=&quot;border-color: var(--border-color); margin: 0px 0px 0px  4px;&quot;&gt;- _sections: List&amp;lt;Section&amp;gt;&lt;/p&gt;" style="text;strokeColor=none;fillColor=none;align=left;verticalAlign=top;spacingLeft=4;spacingRight=4;overflow=hidden;rotatable=0;points=[[0,0.5],[1,0.5]];portConstraint=eastwest;whiteSpace=wrap;html=1;" parent="XDDPpy6xa9LlmRaPZi7B-36" vertex="1">
          <mxGeometry y="26" width="340" height="34" as="geometry" />
        </mxCell>
        <mxCell id="XDDPpy6xa9LlmRaPZi7B-38" value="" style="line;strokeWidth=1;fillColor=none;align=left;verticalAlign=middle;spacingTop=-1;spacingLeft=3;spacingRight=3;rotatable=0;labelPosition=right;points=[];portConstraint=eastwest;strokeColor=inherit;" parent="XDDPpy6xa9LlmRaPZi7B-36" vertex="1">
          <mxGeometry y="60" width="340" height="8" as="geometry" />
        </mxCell>
        <mxCell id="XDDPpy6xa9LlmRaPZi7B-39" value="&lt;p  style=&quot;border-color: var(--border-color); margin: 0px 0px 0px  4px;&quot;&gt;+ GetLocationID()&lt;/p&gt;&lt;p style=&quot;border-color:  var(--border-color); margin: 0px 0px 0px 4px;&quot;&gt;+  GetSeections()&lt;/p&gt;&lt;p style=&quot;border-color:  var(--border-color); margin: 0px 0px 0px 4px;&quot;&gt;+  SetSections(sections: List&amp;lt;Section&amp;gt;)&lt;/p&gt;" style="text;strokeColor=none;fillColor=none;align=left;verticalAlign=top;spacingLeft=4;spacingRight=4;overflow=hidden;rotatable=0;points=[[0,0.5],[1,0.5]];portConstraint=eastwest;whiteSpace=wrap;html=1;" parent="XDDPpy6xa9LlmRaPZi7B-36" vertex="1">
          <mxGeometry y="68" width="340" height="52" as="geometry" />
        </mxCell>
        <mxCell id="XDDPpy6xa9LlmRaPZi7B-40" value="" style="endArrow=diamondThin;endFill=1;endSize=24;html=1;rounded=0;" parent="1" source="EIWtW14MWvJl-eXGEkqy-2" target="XDDPpy6xa9LlmRaPZi7B-36" edge="1">
          <mxGeometry width="160" relative="1" as="geometry">
            <mxPoint x="-1421" y="-2487" as="sourcePoint" />
            <mxPoint x="-1261" y="-2487" as="targetPoint" />
          </mxGeometry>
        </mxCell>
        <mxCell id="XDDPpy6xa9LlmRaPZi7B-41" value="" style="endArrow=diamondThin;endFill=1;endSize=24;html=1;rounded=0;edgeStyle=orthogonalEdgeStyle;" parent="1" source="FMBArwRHaRoccxMsV3ws-11" target="EIWtW14MWvJl-eXGEkqy-52" edge="1">
          <mxGeometry width="160" relative="1" as="geometry">
            <mxPoint x="-2596" y="-1580" as="sourcePoint" />
            <mxPoint x="-2436" y="-1580" as="targetPoint" />
            <Array as="points">
              <mxPoint x="-3236" y="-1950" />
              <mxPoint x="-2256" y="-1950" />
            </Array>
          </mxGeometry>
        </mxCell>
        <mxCell id="XDDPpy6xa9LlmRaPZi7B-42" value="" style="endArrow=diamondThin;endFill=1;endSize=24;html=1;rounded=0;edgeStyle=orthogonalEdgeStyle;" parent="1" source="FMBArwRHaRoccxMsV3ws-24" target="EIWtW14MWvJl-eXGEkqy-52" edge="1">
          <mxGeometry width="160" relative="1" as="geometry">
            <mxPoint x="-2596" y="-1980" as="sourcePoint" />
            <mxPoint x="-2436" y="-1980" as="targetPoint" />
            <Array as="points">
              <mxPoint x="-2886" y="-1950" />
              <mxPoint x="-2256" y="-1950" />
            </Array>
          </mxGeometry>
        </mxCell>
        <mxCell id="XDDPpy6xa9LlmRaPZi7B-43" value="" style="endArrow=diamondThin;endFill=1;endSize=24;html=1;rounded=0;edgeStyle=orthogonalEdgeStyle;" parent="1" source="XDDPpy6xa9LlmRaPZi7B-36" target="EIWtW14MWvJl-eXGEkqy-52" edge="1">
          <mxGeometry width="160" relative="1" as="geometry">
            <mxPoint x="-2596" y="-2250" as="sourcePoint" />
            <mxPoint x="-2436" y="-2250" as="targetPoint" />
            <Array as="points">
              <mxPoint x="-1196" y="-1950" />
              <mxPoint x="-2256" y="-1950" />
            </Array>
          </mxGeometry>
        </mxCell>
        <mxCell id="XDDPpy6xa9LlmRaPZi7B-44" value="" style="endArrow=diamondThin;endFill=1;endSize=24;html=1;rounded=0;" parent="1" source="XDDPpy6xa9LlmRaPZi7B-13" target="EIWtW14MWvJl-eXGEkqy-52" edge="1">
          <mxGeometry width="160" relative="1" as="geometry">
            <mxPoint x="-2136" y="-1170" as="sourcePoint" />
            <mxPoint x="-1976" y="-1170" as="targetPoint" />
          </mxGeometry>
        </mxCell>
        <mxCell id="XDDPpy6xa9LlmRaPZi7B-45" value="" style="endArrow=block;endSize=16;endFill=0;html=1;rounded=0;edgeStyle=orthogonalEdgeStyle;" parent="1" source="XDDPpy6xa9LlmRaPZi7B-17" target="XDDPpy6xa9LlmRaPZi7B-13" edge="1">
          <mxGeometry width="160" relative="1" as="geometry">
            <mxPoint x="-2136" y="-990" as="sourcePoint" />
            <mxPoint x="-1976" y="-990" as="targetPoint" />
          </mxGeometry>
        </mxCell>
        <mxCell id="XDDPpy6xa9LlmRaPZi7B-46" value="" style="endArrow=block;endSize=16;endFill=0;html=1;rounded=0;edgeStyle=orthogonalEdgeStyle;" parent="1" source="XDDPpy6xa9LlmRaPZi7B-21" target="XDDPpy6xa9LlmRaPZi7B-13" edge="1">
          <mxGeometry width="160" relative="1" as="geometry">
            <mxPoint x="-2433" y="-780" as="sourcePoint" />
            <mxPoint x="-2279" y="-970" as="targetPoint" />
          </mxGeometry>
        </mxCell>
        <mxCell id="XDDPpy6xa9LlmRaPZi7B-47" value="" style="endArrow=diamondThin;endFill=1;endSize=24;html=1;rounded=0;" parent="1" source="FMBArwRHaRoccxMsV3ws-47" target="EIWtW14MWvJl-eXGEkqy-52" edge="1">
          <mxGeometry width="160" relative="1" as="geometry">
            <mxPoint x="-2246" y="-1230" as="sourcePoint" />
            <mxPoint x="-2246" y="-1380" as="targetPoint" />
          </mxGeometry>
        </mxCell>
        <mxCell id="XDDPpy6xa9LlmRaPZi7B-48" value="&lt;font  style=&quot;font-size: 14px;&quot;&gt;State&lt;/font&gt;" style="swimlane;fontStyle=1;align=center;verticalAlign=top;childLayout=stackLayout;horizontal=1;startSize=26;horizontalStack=0;resizeParent=1;resizeParentMax=0;resizeLast=0;collapsible=1;marginBottom=0;whiteSpace=wrap;html=1;fillColor=#dae8fc;strokeColor=#6c8ebf;" parent="1" vertex="1">
          <mxGeometry x="-2966" y="-1134" width="350" height="160" as="geometry" />
        </mxCell>
        <mxCell id="XDDPpy6xa9LlmRaPZi7B-49" value="//tutaj pola nie są  konieczne. Tu chodzi o implementacje metod" style="text;strokeColor=none;fillColor=none;align=left;verticalAlign=top;spacingLeft=4;spacingRight=4;overflow=hidden;rotatable=0;points=[[0,0.5],[1,0.5]];portConstraint=eastwest;whiteSpace=wrap;html=1;" parent="XDDPpy6xa9LlmRaPZi7B-48" vertex="1">
          <mxGeometry y="26" width="350" height="24" as="geometry" />
        </mxCell>
        <mxCell id="XDDPpy6xa9LlmRaPZi7B-50" value="" style="line;strokeWidth=1;fillColor=none;align=left;verticalAlign=middle;spacingTop=-1;spacingLeft=3;spacingRight=3;rotatable=0;labelPosition=right;points=[];portConstraint=eastwest;strokeColor=inherit;" parent="XDDPpy6xa9LlmRaPZi7B-48" vertex="1">
          <mxGeometry y="50" width="350" height="8" as="geometry" />
        </mxCell>
        <mxCell id="XDDPpy6xa9LlmRaPZi7B-51" value="&lt;p  style=&quot;border-color: var(--border-color); margin: 0px 0px 0px  4px;&quot;&gt;+ GetBorrowedBooks()&lt;/p&gt;&lt;p  style=&quot;border-color: var(--border-color); margin: 0px 0px 0px  4px;&quot;&gt;+ GetReservedBooks()&lt;/p&gt;&lt;p  style=&quot;border-color: var(--border-color); margin: 0px 0px 0px  4px;&quot;&gt;+ ReserveBook(bookCopy: BookCopy, date: Date)&lt;/p&gt;&lt;p  style=&quot;border-color: var(--border-color); margin: 0px 0px 0px  4px;&quot;&gt;+ CancelBook(reservedCopy: ReservedCopy)&lt;/p&gt;&lt;p  style=&quot;border-color: var(--border-color); margin: 0px 0px 0px  4px;&quot;&gt;+ GetPayments()&lt;/p&gt;&lt;p style=&quot;border-color:  var(--border-color); margin: 0px 0px 0px 4px;&quot;&gt;+ Pay(payment:  Payment)&lt;/p&gt;&lt;p style=&quot;border-color: var(--border-color);  margin: 0px 0px 0px 4px;&quot;&gt;&lt;br style=&quot;border-color:  var(--border-color);&quot;&gt;&lt;/p&gt;" style="text;strokeColor=none;fillColor=none;align=left;verticalAlign=top;spacingLeft=4;spacingRight=4;overflow=hidden;rotatable=0;points=[[0,0.5],[1,0.5]];portConstraint=eastwest;whiteSpace=wrap;html=1;rotation=0;" parent="XDDPpy6xa9LlmRaPZi7B-48" vertex="1">
          <mxGeometry y="58" width="350" height="102" as="geometry" />
        </mxCell>
        <mxCell id="XDDPpy6xa9LlmRaPZi7B-52" value="" style="endArrow=diamondThin;endFill=0;endSize=24;html=1;rounded=0;" parent="1" source="XDDPpy6xa9LlmRaPZi7B-48" target="XDDPpy6xa9LlmRaPZi7B-13" edge="1">
          <mxGeometry width="160" relative="1" as="geometry">
            <mxPoint x="-2676" y="-1030" as="sourcePoint" />
            <mxPoint x="-2516" y="-1030" as="targetPoint" />
          </mxGeometry>
        </mxCell>
        <mxCell id="XDDPpy6xa9LlmRaPZi7B-54" value="&lt;font  style=&quot;font-size: 14px;&quot;&gt;NormalState&lt;/font&gt;" style="swimlane;fontStyle=1;align=center;verticalAlign=top;childLayout=stackLayout;horizontal=1;startSize=26;horizontalStack=0;resizeParent=1;resizeParentMax=0;resizeLast=0;collapsible=1;marginBottom=0;whiteSpace=wrap;html=1;fillColor=#dae8fc;strokeColor=#6c8ebf;" parent="1" vertex="1">
          <mxGeometry x="-3466" y="-1264" width="340" height="160" as="geometry" />
        </mxCell>
        <mxCell id="XDDPpy6xa9LlmRaPZi7B-55" value="-" style="text;strokeColor=none;fillColor=none;align=left;verticalAlign=top;spacingLeft=4;spacingRight=4;overflow=hidden;rotatable=0;points=[[0,0.5],[1,0.5]];portConstraint=eastwest;whiteSpace=wrap;html=1;" parent="XDDPpy6xa9LlmRaPZi7B-54" vertex="1">
          <mxGeometry y="26" width="340" height="24" as="geometry" />
        </mxCell>
        <mxCell id="XDDPpy6xa9LlmRaPZi7B-56" value="" style="line;strokeWidth=1;fillColor=none;align=left;verticalAlign=middle;spacingTop=-1;spacingLeft=3;spacingRight=3;rotatable=0;labelPosition=right;points=[];portConstraint=eastwest;strokeColor=inherit;" parent="XDDPpy6xa9LlmRaPZi7B-54" vertex="1">
          <mxGeometry y="50" width="340" height="8" as="geometry" />
        </mxCell>
        <mxCell id="XDDPpy6xa9LlmRaPZi7B-57" value="&lt;p  style=&quot;border-color: var(--border-color); margin: 0px 0px 0px  4px;&quot;&gt;+ GetBorrowedBooks()&lt;/p&gt;&lt;p  style=&quot;border-color: var(--border-color); margin: 0px 0px 0px  4px;&quot;&gt;+ GetReservedBooks()&lt;/p&gt;&lt;p  style=&quot;border-color: var(--border-color); margin: 0px 0px 0px  4px;&quot;&gt;+ ReserveBook(bookCopy: BookCopy, date: Date)&lt;/p&gt;&lt;p  style=&quot;border-color: var(--border-color); margin: 0px 0px 0px  4px;&quot;&gt;+ CancelBook(reservedCopy: ReservedCopy)&lt;/p&gt;&lt;p  style=&quot;border-color: var(--border-color); margin: 0px 0px 0px  4px;&quot;&gt;+ GetPayments()&lt;/p&gt;&lt;p style=&quot;border-color:  var(--border-color); margin: 0px 0px 0px 4px;&quot;&gt;+ Pay(payment:  Payment)&lt;/p&gt;&lt;p style=&quot;border-color: var(--border-color);  margin: 0px 0px 0px 4px;&quot;&gt;&lt;br style=&quot;border-color:  var(--border-color);&quot;&gt;&lt;/p&gt;" style="text;strokeColor=none;fillColor=none;align=left;verticalAlign=top;spacingLeft=4;spacingRight=4;overflow=hidden;rotatable=0;points=[[0,0.5],[1,0.5]];portConstraint=eastwest;whiteSpace=wrap;html=1;rotation=0;" parent="XDDPpy6xa9LlmRaPZi7B-54" vertex="1">
          <mxGeometry y="58" width="340" height="102" as="geometry" />
        </mxCell>
        <mxCell id="XDDPpy6xa9LlmRaPZi7B-58" value="&lt;font  style=&quot;font-size: 14px;&quot;&gt;BanState&lt;/font&gt;" style="swimlane;fontStyle=1;align=center;verticalAlign=top;childLayout=stackLayout;horizontal=1;startSize=26;horizontalStack=0;resizeParent=1;resizeParentMax=0;resizeLast=0;collapsible=1;marginBottom=0;whiteSpace=wrap;html=1;fillColor=#dae8fc;strokeColor=#6c8ebf;" parent="1" vertex="1">
          <mxGeometry x="-3466" y="-1040" width="340" height="160" as="geometry" />
        </mxCell>
        <mxCell id="XDDPpy6xa9LlmRaPZi7B-59" value="-" style="text;strokeColor=none;fillColor=none;align=left;verticalAlign=top;spacingLeft=4;spacingRight=4;overflow=hidden;rotatable=0;points=[[0,0.5],[1,0.5]];portConstraint=eastwest;whiteSpace=wrap;html=1;" parent="XDDPpy6xa9LlmRaPZi7B-58" vertex="1">
          <mxGeometry y="26" width="340" height="24" as="geometry" />
        </mxCell>
        <mxCell id="XDDPpy6xa9LlmRaPZi7B-60" value="" style="line;strokeWidth=1;fillColor=none;align=left;verticalAlign=middle;spacingTop=-1;spacingLeft=3;spacingRight=3;rotatable=0;labelPosition=right;points=[];portConstraint=eastwest;strokeColor=inherit;" parent="XDDPpy6xa9LlmRaPZi7B-58" vertex="1">
          <mxGeometry y="50" width="340" height="8" as="geometry" />
        </mxCell>
        <mxCell id="XDDPpy6xa9LlmRaPZi7B-61" value="&lt;p  style=&quot;border-color: var(--border-color); margin: 0px 0px 0px  4px;&quot;&gt;+ GetBorrowedBooks()&lt;/p&gt;&lt;p  style=&quot;border-color: var(--border-color); margin: 0px 0px 0px  4px;&quot;&gt;+ GetReservedBooks()&lt;/p&gt;&lt;p  style=&quot;border-color: var(--border-color); margin: 0px 0px 0px  4px;&quot;&gt;+ ReserveBook(bookCopy: BookCopy, date: Date)&lt;/p&gt;&lt;p  style=&quot;border-color: var(--border-color); margin: 0px 0px 0px  4px;&quot;&gt;+ CancelBook(reservedCopy: ReservedCopy)&lt;/p&gt;&lt;p  style=&quot;border-color: var(--border-color); margin: 0px 0px 0px  4px;&quot;&gt;+ GetPayments()&lt;/p&gt;&lt;p style=&quot;border-color:  var(--border-color); margin: 0px 0px 0px 4px;&quot;&gt;+ Pay(payment:  Payment)&lt;/p&gt;&lt;p style=&quot;border-color: var(--border-color);  margin: 0px 0px 0px 4px;&quot;&gt;&lt;br style=&quot;border-color:  var(--border-color);&quot;&gt;&lt;/p&gt;" style="text;strokeColor=none;fillColor=none;align=left;verticalAlign=top;spacingLeft=4;spacingRight=4;overflow=hidden;rotatable=0;points=[[0,0.5],[1,0.5]];portConstraint=eastwest;whiteSpace=wrap;html=1;rotation=0;" parent="XDDPpy6xa9LlmRaPZi7B-58" vertex="1">
          <mxGeometry y="58" width="340" height="102" as="geometry" />
        </mxCell>
        <mxCell id="XDDPpy6xa9LlmRaPZi7B-62" value="" style="endArrow=block;endSize=16;endFill=0;html=1;rounded=0;edgeStyle=orthogonalEdgeStyle;" parent="1" source="XDDPpy6xa9LlmRaPZi7B-54" target="XDDPpy6xa9LlmRaPZi7B-48" edge="1">
          <mxGeometry width="160" relative="1" as="geometry">
            <mxPoint x="-3016" y="-1104" as="sourcePoint" />
            <mxPoint x="-2856" y="-1104" as="targetPoint" />
          </mxGeometry>
        </mxCell>
        <mxCell id="XDDPpy6xa9LlmRaPZi7B-63" value="" style="endArrow=block;endSize=16;endFill=0;html=1;rounded=0;edgeStyle=orthogonalEdgeStyle;" parent="1" source="XDDPpy6xa9LlmRaPZi7B-58" target="XDDPpy6xa9LlmRaPZi7B-48" edge="1">
          <mxGeometry width="160" relative="1" as="geometry">
            <mxPoint x="-3136" y="-1094" as="sourcePoint" />
            <mxPoint x="-2966" y="-1060" as="targetPoint" />
          </mxGeometry>
        </mxCell>
        <mxCell id="XDDPpy6xa9LlmRaPZi7B-64" value="&lt;font  style=&quot;font-size: 14px;&quot;&gt;Publisher&lt;/font&gt;" style="swimlane;fontStyle=1;align=center;verticalAlign=top;childLayout=stackLayout;horizontal=1;startSize=26;horizontalStack=0;resizeParent=1;resizeParentMax=0;resizeLast=0;collapsible=1;marginBottom=0;whiteSpace=wrap;html=1;fillColor=#dae8fc;strokeColor=#6c8ebf;" parent="1" vertex="1">
          <mxGeometry x="-2571" y="-2165" width="360" height="140" as="geometry">
            <mxRectangle x="370" y="510" width="60" height="30" as="alternateBounds" />
          </mxGeometry>
        </mxCell>
        <mxCell id="XDDPpy6xa9LlmRaPZi7B-65" value="- _publisherName:  String&lt;br&gt;- _publishership: Publishership&lt;br&gt;&lt;div  style=&quot;display:none&quot; id=&quot;SDCloudData&quot;&gt;&lt;/div&gt;" style="text;strokeColor=none;fillColor=none;align=left;verticalAlign=top;spacingLeft=4;spacingRight=4;overflow=hidden;rotatable=0;points=[[0,0.5],[1,0.5]];portConstraint=eastwest;whiteSpace=wrap;html=1;rotation=0;" parent="XDDPpy6xa9LlmRaPZi7B-64" vertex="1">
          <mxGeometry y="26" width="360" height="34" as="geometry" />
        </mxCell>
        <mxCell id="XDDPpy6xa9LlmRaPZi7B-66" value="" style="line;strokeWidth=1;fillColor=none;align=left;verticalAlign=middle;spacingTop=-1;spacingLeft=3;spacingRight=3;rotatable=0;labelPosition=right;points=[];portConstraint=eastwest;strokeColor=inherit;" parent="XDDPpy6xa9LlmRaPZi7B-64" vertex="1">
          <mxGeometry y="60" width="360" height="8" as="geometry" />
        </mxCell>
        <mxCell id="XDDPpy6xa9LlmRaPZi7B-67" value="&lt;p  style=&quot;border-color: var(--border-color); margin: 0px 0px 0px  4px;&quot;&gt;+ GetPublisherName()&lt;/p&gt;&lt;p  style=&quot;border-color: var(--border-color); margin: 0px 0px 0px  4px;&quot;&gt;+ SetPublisherName(publisherName: String)&lt;/p&gt;&lt;p  style=&quot;border-color: var(--border-color); margin: 0px 0px 0px  4px;&quot;&gt;+ GetPublishership()&lt;/p&gt;&lt;p  style=&quot;border-color: var(--border-color); margin: 0px 0px 0px  4px;&quot;&gt;+ SetPublishership(publishership: Publishership)&lt;/p&gt;" style="text;strokeColor=none;fillColor=none;align=left;verticalAlign=top;spacingLeft=4;spacingRight=4;overflow=hidden;rotatable=0;points=[[0,0.5],[1,0.5]];portConstraint=eastwest;whiteSpace=wrap;html=1;" parent="XDDPpy6xa9LlmRaPZi7B-64" vertex="1">
          <mxGeometry y="68" width="360" height="72" as="geometry" />
        </mxCell>
        <mxCell id="XDDPpy6xa9LlmRaPZi7B-68" value="&lt;font  style=&quot;font-size: 14px;&quot;&gt;Publishership(nazwa  chwilowa)&lt;/font&gt;" style="swimlane;fontStyle=1;align=center;verticalAlign=top;childLayout=stackLayout;horizontal=1;startSize=26;horizontalStack=0;resizeParent=1;resizeParentMax=0;resizeLast=0;collapsible=1;marginBottom=0;whiteSpace=wrap;html=1;fillColor=#dae8fc;strokeColor=#6c8ebf;" parent="1" vertex="1">
          <mxGeometry x="-2586" y="-2450" width="390" height="160" as="geometry" />
        </mxCell>
        <mxCell id="XDDPpy6xa9LlmRaPZi7B-69" value="- _editions:  List&amp;lt;Edition&amp;gt;&lt;br style=&quot;border-color:  var(--border-color);&quot;&gt;- _publisher: Publisher" style="text;strokeColor=none;fillColor=none;align=left;verticalAlign=top;spacingLeft=4;spacingRight=4;overflow=hidden;rotatable=0;points=[[0,0.5],[1,0.5]];portConstraint=eastwest;whiteSpace=wrap;html=1;rotation=0;" parent="XDDPpy6xa9LlmRaPZi7B-68" vertex="1">
          <mxGeometry y="26" width="390" height="40" as="geometry" />
        </mxCell>
        <mxCell id="XDDPpy6xa9LlmRaPZi7B-70" value="" style="line;strokeWidth=1;fillColor=none;align=left;verticalAlign=middle;spacingTop=-1;spacingLeft=3;spacingRight=3;rotatable=0;labelPosition=right;points=[];portConstraint=eastwest;strokeColor=inherit;" parent="XDDPpy6xa9LlmRaPZi7B-68" vertex="1">
          <mxGeometry y="66" width="390" height="8" as="geometry" />
        </mxCell>
        <mxCell id="XDDPpy6xa9LlmRaPZi7B-71" value="&lt;p  style=&quot;border-color: var(--border-color); margin: 0px 0px 0px  4px;&quot;&gt;+ GetEditions()&lt;/p&gt;&lt;p style=&quot;border-color:  var(--border-color); margin: 0px 0px 0px 4px;&quot;&gt;+  AddEdition(edition: Edition)&lt;/p&gt;&lt;p style=&quot;border-color:  var(--border-color); margin: 0px 0px 0px 4px;&quot;&gt;+  RemoveEdition(edition: Edition)&lt;/p&gt;&lt;p style=&quot;border-color:  var(--border-color); margin: 0px 0px 0px 4px;&quot;&gt;+  GetPublisher()&lt;/p&gt;&lt;p style=&quot;border-color:  var(--border-color); margin: 0px 0px 0px 4px;&quot;&gt;+  SetPublisher(publisher: Publishers)&lt;/p&gt;" style="text;strokeColor=none;fillColor=none;align=left;verticalAlign=top;spacingLeft=4;spacingRight=4;overflow=hidden;rotatable=0;points=[[0,0.5],[1,0.5]];portConstraint=eastwest;whiteSpace=wrap;html=1;rotation=0;" parent="XDDPpy6xa9LlmRaPZi7B-68" vertex="1">
          <mxGeometry y="74" width="390" height="86" as="geometry" />
        </mxCell>
        <mxCell id="XDDPpy6xa9LlmRaPZi7B-72" value="" style="endArrow=diamondThin;endFill=1;endSize=24;html=1;rounded=0;" parent="1" source="XDDPpy6xa9LlmRaPZi7B-71" target="XDDPpy6xa9LlmRaPZi7B-64" edge="1">
          <mxGeometry width="160" relative="1" as="geometry">
            <mxPoint x="-2296" y="-2290" as="sourcePoint" />
            <mxPoint x="-2136" y="-2290" as="targetPoint" />
          </mxGeometry>
        </mxCell>
        <mxCell id="XDDPpy6xa9LlmRaPZi7B-73" value="&lt;font  style=&quot;font-size: 14px;&quot;&gt;Language&lt;/font&gt;" style="swimlane;fontStyle=1;align=center;verticalAlign=top;childLayout=stackLayout;horizontal=1;startSize=26;horizontalStack=0;resizeParent=1;resizeParentMax=0;resizeLast=0;collapsible=1;marginBottom=0;whiteSpace=wrap;html=1;fillColor=#dae8fc;strokeColor=#6c8ebf;" parent="1" vertex="1">
          <mxGeometry x="-2021" y="-2165" width="360" height="140" as="geometry">
            <mxRectangle x="370" y="510" width="60" height="30" as="alternateBounds" />
          </mxGeometry>
        </mxCell>
        <mxCell id="XDDPpy6xa9LlmRaPZi7B-74" value="- _languageName:  String&lt;br&gt;- _languageship: Languageship&lt;br&gt;&lt;div  style=&quot;display:none&quot; id=&quot;SDCloudData&quot;&gt;&lt;/div&gt;" style="text;strokeColor=none;fillColor=none;align=left;verticalAlign=top;spacingLeft=4;spacingRight=4;overflow=hidden;rotatable=0;points=[[0,0.5],[1,0.5]];portConstraint=eastwest;whiteSpace=wrap;html=1;rotation=0;" parent="XDDPpy6xa9LlmRaPZi7B-73" vertex="1">
          <mxGeometry y="26" width="360" height="34" as="geometry" />
        </mxCell>
        <mxCell id="XDDPpy6xa9LlmRaPZi7B-75" value="" style="line;strokeWidth=1;fillColor=none;align=left;verticalAlign=middle;spacingTop=-1;spacingLeft=3;spacingRight=3;rotatable=0;labelPosition=right;points=[];portConstraint=eastwest;strokeColor=inherit;" parent="XDDPpy6xa9LlmRaPZi7B-73" vertex="1">
          <mxGeometry y="60" width="360" height="8" as="geometry" />
        </mxCell>
        <mxCell id="XDDPpy6xa9LlmRaPZi7B-76" value="&lt;p  style=&quot;border-color: var(--border-color); margin: 0px 0px 0px  4px;&quot;&gt;+ GetLanguageName()&lt;/p&gt;&lt;p style=&quot;border-color:  var(--border-color); margin: 0px 0px 0px 4px;&quot;&gt;+  SetLanguageName(languageName: String)&lt;/p&gt;&lt;p  style=&quot;border-color: var(--border-color); margin: 0px 0px 0px  4px;&quot;&gt;+ GetLanguageship()&lt;/p&gt;&lt;p style=&quot;border-color:  var(--border-color); margin: 0px 0px 0px 4px;&quot;&gt;+  SetLanguageship(languageship: Languageship)&lt;/p&gt;&lt;p  style=&quot;border-color: var(--border-color); margin: 0px 0px 0px  4px;&quot;&gt;&lt;br&gt;&lt;/p&gt;" style="text;strokeColor=none;fillColor=none;align=left;verticalAlign=top;spacingLeft=4;spacingRight=4;overflow=hidden;rotatable=0;points=[[0,0.5],[1,0.5]];portConstraint=eastwest;whiteSpace=wrap;html=1;" parent="XDDPpy6xa9LlmRaPZi7B-73" vertex="1">
          <mxGeometry y="68" width="360" height="72" as="geometry" />
        </mxCell>
        <mxCell id="XDDPpy6xa9LlmRaPZi7B-77" value="&lt;font  style=&quot;font-size: 14px;&quot;&gt;Languageship(nazwa  chwilowa)&lt;/font&gt;" style="swimlane;fontStyle=1;align=center;verticalAlign=top;childLayout=stackLayout;horizontal=1;startSize=26;horizontalStack=0;resizeParent=1;resizeParentMax=0;resizeLast=0;collapsible=1;marginBottom=0;whiteSpace=wrap;html=1;fillColor=#dae8fc;strokeColor=#6c8ebf;" parent="1" vertex="1">
          <mxGeometry x="-2036" y="-2450" width="390" height="160" as="geometry" />
        </mxCell>
        <mxCell id="XDDPpy6xa9LlmRaPZi7B-78" value="- _editions:  List&amp;lt;Edition&amp;gt;&lt;br style=&quot;border-color:  var(--border-color);&quot;&gt;- _language: Language" style="text;strokeColor=none;fillColor=none;align=left;verticalAlign=top;spacingLeft=4;spacingRight=4;overflow=hidden;rotatable=0;points=[[0,0.5],[1,0.5]];portConstraint=eastwest;whiteSpace=wrap;html=1;rotation=0;" parent="XDDPpy6xa9LlmRaPZi7B-77" vertex="1">
          <mxGeometry y="26" width="390" height="40" as="geometry" />
        </mxCell>
        <mxCell id="XDDPpy6xa9LlmRaPZi7B-79" value="" style="line;strokeWidth=1;fillColor=none;align=left;verticalAlign=middle;spacingTop=-1;spacingLeft=3;spacingRight=3;rotatable=0;labelPosition=right;points=[];portConstraint=eastwest;strokeColor=inherit;" parent="XDDPpy6xa9LlmRaPZi7B-77" vertex="1">
          <mxGeometry y="66" width="390" height="8" as="geometry" />
        </mxCell>
        <mxCell id="XDDPpy6xa9LlmRaPZi7B-80" value="&lt;p  style=&quot;border-color: var(--border-color); margin: 0px 0px 0px  4px;&quot;&gt;+ GetEditions()&lt;/p&gt;&lt;p style=&quot;border-color:  var(--border-color); margin: 0px 0px 0px 4px;&quot;&gt;+  AddEdition(edition: Edition)&lt;/p&gt;&lt;p style=&quot;border-color:  var(--border-color); margin: 0px 0px 0px 4px;&quot;&gt;+  RemoveEdition(edition: Edition)&lt;/p&gt;&lt;p style=&quot;border-color:  var(--border-color); margin: 0px 0px 0px 4px;&quot;&gt;+  GetLanguage()&lt;/p&gt;&lt;p style=&quot;border-color:  var(--border-color); margin: 0px 0px 0px 4px;&quot;&gt;+  SetLanguage(language: Language)&lt;/p&gt;" style="text;strokeColor=none;fillColor=none;align=left;verticalAlign=top;spacingLeft=4;spacingRight=4;overflow=hidden;rotatable=0;points=[[0,0.5],[1,0.5]];portConstraint=eastwest;whiteSpace=wrap;html=1;rotation=0;" parent="XDDPpy6xa9LlmRaPZi7B-77" vertex="1">
          <mxGeometry y="74" width="390" height="86" as="geometry" />
        </mxCell>
        <mxCell id="XDDPpy6xa9LlmRaPZi7B-81" value="" style="endArrow=diamondThin;endFill=1;endSize=24;html=1;rounded=0;" parent="1" source="XDDPpy6xa9LlmRaPZi7B-80" target="XDDPpy6xa9LlmRaPZi7B-73" edge="1">
          <mxGeometry width="160" relative="1" as="geometry">
            <mxPoint x="-1866" y="-2290" as="sourcePoint" />
            <mxPoint x="-1706" y="-2290" as="targetPoint" />
          </mxGeometry>
        </mxCell>
        <mxCell id="XDDPpy6xa9LlmRaPZi7B-82" value="" style="endArrow=diamondThin;endFill=1;endSize=24;html=1;rounded=0;edgeStyle=orthogonalEdgeStyle;" parent="1" source="XDDPpy6xa9LlmRaPZi7B-64" target="EIWtW14MWvJl-eXGEkqy-52" edge="1">
          <mxGeometry width="160" relative="1" as="geometry">
            <mxPoint x="-2796" y="-2150" as="sourcePoint" />
            <mxPoint x="-2291" y="-1840" as="targetPoint" />
            <Array as="points">
              <mxPoint x="-2391" y="-1950" />
              <mxPoint x="-2256" y="-1950" />
            </Array>
          </mxGeometry>
        </mxCell>
        <mxCell id="XDDPpy6xa9LlmRaPZi7B-83" value="" style="endArrow=diamondThin;endFill=1;endSize=24;html=1;rounded=0;edgeStyle=orthogonalEdgeStyle;" parent="1" source="XDDPpy6xa9LlmRaPZi7B-73" target="EIWtW14MWvJl-eXGEkqy-52" edge="1">
          <mxGeometry width="160" relative="1" as="geometry">
            <mxPoint x="-2383" y="-2150" as="sourcePoint" />
            <mxPoint x="-2244" y="-1840" as="targetPoint" />
            <Array as="points">
              <mxPoint x="-1841" y="-1950" />
              <mxPoint x="-2256" y="-1950" />
            </Array>
          </mxGeometry>
        </mxCell>
        <mxCell id="XDDPpy6xa9LlmRaPZi7B-84" value="" style="endArrow=diamondThin;endFill=0;endSize=24;html=1;rounded=0;edgeStyle=orthogonalEdgeStyle;" parent="1" source="XDDPpy6xa9LlmRaPZi7B-68" target="EIWtW14MWvJl-eXGEkqy-40" edge="1">
          <mxGeometry width="160" relative="1" as="geometry">
            <mxPoint x="-2787" y="-2420" as="sourcePoint" />
            <mxPoint x="-2401" y="-2630" as="targetPoint" />
            <Array as="points">
              <mxPoint x="-2401" y="-2490" />
              <mxPoint x="-2401" y="-2490" />
            </Array>
          </mxGeometry>
        </mxCell>
        <mxCell id="XDDPpy6xa9LlmRaPZi7B-85" value="" style="endArrow=diamondThin;endFill=0;endSize=24;html=1;rounded=0;edgeStyle=orthogonalEdgeStyle;" parent="1" source="XDDPpy6xa9LlmRaPZi7B-77" target="EIWtW14MWvJl-eXGEkqy-40" edge="1">
          <mxGeometry width="160" relative="1" as="geometry">
            <mxPoint x="-2398" y="-2420" as="sourcePoint" />
            <mxPoint x="-2384" y="-2630" as="targetPoint" />
            <Array as="points">
              <mxPoint x="-1841" y="-2500" />
              <mxPoint x="-2401" y="-2500" />
            </Array>
          </mxGeometry>
        </mxCell>
        <mxCell id="nKgL5r-zwHb2kbBtqbAN-1" value="&lt;font  style=&quot;font-size: 14px;&quot;&gt;Generic&lt;/font&gt;" style="swimlane;fontStyle=1;align=center;verticalAlign=top;childLayout=stackLayout;horizontal=1;startSize=26;horizontalStack=0;resizeParent=1;resizeParentMax=0;resizeLast=0;collapsible=1;marginBottom=0;whiteSpace=wrap;html=1;fillColor=#dae8fc;strokeColor=#6c8ebf;" parent="1" vertex="1">
          <mxGeometry x="-3691" y="-2170" width="360" height="140" as="geometry">
            <mxRectangle x="370" y="510" width="60" height="30" as="alternateBounds" />
          </mxGeometry>
        </mxCell>
        <mxCell id="nKgL5r-zwHb2kbBtqbAN-2" value="- _genericName:  String&lt;br&gt;- _genericship: Genericship&lt;br&gt;&lt;div  style=&quot;display:none&quot; id=&quot;SDCloudData&quot;&gt;&lt;/div&gt;" style="text;strokeColor=none;fillColor=none;align=left;verticalAlign=top;spacingLeft=4;spacingRight=4;overflow=hidden;rotatable=0;points=[[0,0.5],[1,0.5]];portConstraint=eastwest;whiteSpace=wrap;html=1;rotation=0;" parent="nKgL5r-zwHb2kbBtqbAN-1" vertex="1">
          <mxGeometry y="26" width="360" height="34" as="geometry" />
        </mxCell>
        <mxCell id="nKgL5r-zwHb2kbBtqbAN-3" value="" style="line;strokeWidth=1;fillColor=none;align=left;verticalAlign=middle;spacingTop=-1;spacingLeft=3;spacingRight=3;rotatable=0;labelPosition=right;points=[];portConstraint=eastwest;strokeColor=inherit;" parent="nKgL5r-zwHb2kbBtqbAN-1" vertex="1">
          <mxGeometry y="60" width="360" height="8" as="geometry" />
        </mxCell>
        <mxCell id="nKgL5r-zwHb2kbBtqbAN-4" value="&lt;p  style=&quot;border-color: var(--border-color); margin: 0px 0px 0px  4px;&quot;&gt;+ GetGenericName()&lt;/p&gt;&lt;p style=&quot;border-color:  var(--border-color); margin: 0px 0px 0px 4px;&quot;&gt;+  SetGenericName(genericName: String)&lt;/p&gt;&lt;p  style=&quot;border-color: var(--border-color); margin: 0px 0px 0px  4px;&quot;&gt;+ GetGenericship()&lt;/p&gt;&lt;p style=&quot;border-color:  var(--border-color); margin: 0px 0px 0px 4px;&quot;&gt;+  SetGenericship(genericship: Genericship)&lt;/p&gt;" style="text;strokeColor=none;fillColor=none;align=left;verticalAlign=top;spacingLeft=4;spacingRight=4;overflow=hidden;rotatable=0;points=[[0,0.5],[1,0.5]];portConstraint=eastwest;whiteSpace=wrap;html=1;" parent="nKgL5r-zwHb2kbBtqbAN-1" vertex="1">
          <mxGeometry y="68" width="360" height="72" as="geometry" />
        </mxCell>
        <mxCell id="nKgL5r-zwHb2kbBtqbAN-5" value="&lt;font  style=&quot;font-size: 14px;&quot;&gt;Genericship(nazwa  chwilowa)&lt;/font&gt;" style="swimlane;fontStyle=1;align=center;verticalAlign=top;childLayout=stackLayout;horizontal=1;startSize=26;horizontalStack=0;resizeParent=1;resizeParentMax=0;resizeLast=0;collapsible=1;marginBottom=0;whiteSpace=wrap;html=1;fillColor=#dae8fc;strokeColor=#6c8ebf;" parent="1" vertex="1">
          <mxGeometry x="-3716" y="-2450" width="390" height="160" as="geometry" />
        </mxCell>
        <mxCell id="nKgL5r-zwHb2kbBtqbAN-6" value="- _books:  List&amp;lt;Book&amp;gt;&lt;br&gt;- _generic: Generic" style="text;strokeColor=none;fillColor=none;align=left;verticalAlign=top;spacingLeft=4;spacingRight=4;overflow=hidden;rotatable=0;points=[[0,0.5],[1,0.5]];portConstraint=eastwest;whiteSpace=wrap;html=1;rotation=0;" parent="nKgL5r-zwHb2kbBtqbAN-5" vertex="1">
          <mxGeometry y="26" width="390" height="40" as="geometry" />
        </mxCell>
        <mxCell id="nKgL5r-zwHb2kbBtqbAN-7" value="" style="line;strokeWidth=1;fillColor=none;align=left;verticalAlign=middle;spacingTop=-1;spacingLeft=3;spacingRight=3;rotatable=0;labelPosition=right;points=[];portConstraint=eastwest;strokeColor=inherit;" parent="nKgL5r-zwHb2kbBtqbAN-5" vertex="1">
          <mxGeometry y="66" width="390" height="8" as="geometry" />
        </mxCell>
        <mxCell id="nKgL5r-zwHb2kbBtqbAN-8" value="&lt;p  style=&quot;border-color: var(--border-color); margin: 0px 0px 0px  4px;&quot;&gt;+ GetBooks()&lt;/p&gt;&lt;p style=&quot;border-color:  var(--border-color); margin: 0px 0px 0px 4px;&quot;&gt;+ AddBook(book:  Book)&lt;/p&gt;&lt;p style=&quot;border-color: var(--border-color);  margin: 0px 0px 0px 4px;&quot;&gt;+ RemoveBook(book: Book)&lt;/p&gt;&lt;p  style=&quot;border-color: var(--border-color); margin: 0px 0px 0px  4px;&quot;&gt;+ GetGeneric()&lt;/p&gt;&lt;p style=&quot;border-color:  var(--border-color); margin: 0px 0px 0px 4px;&quot;&gt;+  SetGeneric(generic: Generic)&lt;/p&gt;" style="text;strokeColor=none;fillColor=none;align=left;verticalAlign=top;spacingLeft=4;spacingRight=4;overflow=hidden;rotatable=0;points=[[0,0.5],[1,0.5]];portConstraint=eastwest;whiteSpace=wrap;html=1;rotation=0;" parent="nKgL5r-zwHb2kbBtqbAN-5" vertex="1">
          <mxGeometry y="74" width="390" height="86" as="geometry" />
        </mxCell>
        <mxCell id="nKgL5r-zwHb2kbBtqbAN-9" value="" style="endArrow=diamondThin;endFill=1;endSize=24;html=1;rounded=0;" parent="1" source="nKgL5r-zwHb2kbBtqbAN-8" target="nKgL5r-zwHb2kbBtqbAN-1" edge="1">
          <mxGeometry width="160" relative="1" as="geometry">
            <mxPoint x="-3406" y="-2280" as="sourcePoint" />
            <mxPoint x="-3246" y="-2280" as="targetPoint" />
          </mxGeometry>
        </mxCell>
        <mxCell id="nKgL5r-zwHb2kbBtqbAN-10" value="&lt;span  style=&quot;font-size: 14px;&quot;&gt;Topic&lt;/span&gt;" style="swimlane;fontStyle=1;align=center;verticalAlign=top;childLayout=stackLayout;horizontal=1;startSize=26;horizontalStack=0;resizeParent=1;resizeParentMax=0;resizeLast=0;collapsible=1;marginBottom=0;whiteSpace=wrap;html=1;fillColor=#dae8fc;strokeColor=#6c8ebf;" parent="1" vertex="1">
          <mxGeometry x="-4181" y="-2170" width="360" height="140" as="geometry">
            <mxRectangle x="370" y="510" width="60" height="30" as="alternateBounds" />
          </mxGeometry>
        </mxCell>
        <mxCell id="nKgL5r-zwHb2kbBtqbAN-11" value="- _topicName:  String&lt;br&gt;- _topicship: Topicship&lt;br&gt;&lt;div  style=&quot;display:none&quot; id=&quot;SDCloudData&quot;&gt;&lt;/div&gt;" style="text;strokeColor=none;fillColor=none;align=left;verticalAlign=top;spacingLeft=4;spacingRight=4;overflow=hidden;rotatable=0;points=[[0,0.5],[1,0.5]];portConstraint=eastwest;whiteSpace=wrap;html=1;rotation=0;" parent="nKgL5r-zwHb2kbBtqbAN-10" vertex="1">
          <mxGeometry y="26" width="360" height="34" as="geometry" />
        </mxCell>
        <mxCell id="nKgL5r-zwHb2kbBtqbAN-12" value="" style="line;strokeWidth=1;fillColor=none;align=left;verticalAlign=middle;spacingTop=-1;spacingLeft=3;spacingRight=3;rotatable=0;labelPosition=right;points=[];portConstraint=eastwest;strokeColor=inherit;" parent="nKgL5r-zwHb2kbBtqbAN-10" vertex="1">
          <mxGeometry y="60" width="360" height="8" as="geometry" />
        </mxCell>
        <mxCell id="nKgL5r-zwHb2kbBtqbAN-13" value="&lt;p  style=&quot;border-color: var(--border-color); margin: 0px 0px 0px  4px;&quot;&gt;+ GetTopicName()&lt;/p&gt;&lt;p style=&quot;border-color:  var(--border-color); margin: 0px 0px 0px 4px;&quot;&gt;+  SetTopicName(topicName: String)&lt;br&gt;&lt;/p&gt;&lt;p  style=&quot;border-color: var(--border-color); margin: 0px 0px 0px  4px;&quot;&gt;+ GetTopicShip()&lt;/p&gt;&lt;p style=&quot;border-color:  var(--border-color); margin: 0px 0px 0px 4px;&quot;&gt;+  SetTopicShip(topicShip: Topicship)&lt;/p&gt;" style="text;strokeColor=none;fillColor=none;align=left;verticalAlign=top;spacingLeft=4;spacingRight=4;overflow=hidden;rotatable=0;points=[[0,0.5],[1,0.5]];portConstraint=eastwest;whiteSpace=wrap;html=1;" parent="nKgL5r-zwHb2kbBtqbAN-10" vertex="1">
          <mxGeometry y="68" width="360" height="72" as="geometry" />
        </mxCell>
        <mxCell id="nKgL5r-zwHb2kbBtqbAN-14" value="&lt;font  style=&quot;font-size: 14px;&quot;&gt;Topicship(nazwa  chwilowa)&lt;/font&gt;" style="swimlane;fontStyle=1;align=center;verticalAlign=top;childLayout=stackLayout;horizontal=1;startSize=26;horizontalStack=0;resizeParent=1;resizeParentMax=0;resizeLast=0;collapsible=1;marginBottom=0;whiteSpace=wrap;html=1;fillColor=#dae8fc;strokeColor=#6c8ebf;" parent="1" vertex="1">
          <mxGeometry x="-4196" y="-2450" width="390" height="160" as="geometry" />
        </mxCell>
        <mxCell id="nKgL5r-zwHb2kbBtqbAN-15" value="- _books:  List&amp;lt;Book&amp;gt;&lt;br style=&quot;border-color:  var(--border-color);&quot;&gt;- _topic: Topic" style="text;strokeColor=none;fillColor=none;align=left;verticalAlign=top;spacingLeft=4;spacingRight=4;overflow=hidden;rotatable=0;points=[[0,0.5],[1,0.5]];portConstraint=eastwest;whiteSpace=wrap;html=1;rotation=0;" parent="nKgL5r-zwHb2kbBtqbAN-14" vertex="1">
          <mxGeometry y="26" width="390" height="40" as="geometry" />
        </mxCell>
        <mxCell id="nKgL5r-zwHb2kbBtqbAN-16" value="" style="line;strokeWidth=1;fillColor=none;align=left;verticalAlign=middle;spacingTop=-1;spacingLeft=3;spacingRight=3;rotatable=0;labelPosition=right;points=[];portConstraint=eastwest;strokeColor=inherit;" parent="nKgL5r-zwHb2kbBtqbAN-14" vertex="1">
          <mxGeometry y="66" width="390" height="8" as="geometry" />
        </mxCell>
        <mxCell id="nKgL5r-zwHb2kbBtqbAN-17" value="&lt;p  style=&quot;border-color: var(--border-color); margin: 0px 0px 0px  4px;&quot;&gt;+ GetBooks()&lt;/p&gt;&lt;p style=&quot;border-color:  var(--border-color); margin: 0px 0px 0px 4px;&quot;&gt;+ AddBook(book:  Book)&lt;/p&gt;&lt;p style=&quot;border-color: var(--border-color);  margin: 0px 0px 0px 4px;&quot;&gt;+ RemoveBook(book: Book)&lt;/p&gt;&lt;p  style=&quot;border-color: var(--border-color); margin: 0px 0px 0px  4px;&quot;&gt;+ GetTopic()&lt;/p&gt;&lt;p style=&quot;border-color:  var(--border-color); margin: 0px 0px 0px 4px;&quot;&gt;+ SetTopic(topic:  Topic)&lt;/p&gt;" style="text;strokeColor=none;fillColor=none;align=left;verticalAlign=top;spacingLeft=4;spacingRight=4;overflow=hidden;rotatable=0;points=[[0,0.5],[1,0.5]];portConstraint=eastwest;whiteSpace=wrap;html=1;rotation=0;" parent="nKgL5r-zwHb2kbBtqbAN-14" vertex="1">
          <mxGeometry y="74" width="390" height="86" as="geometry" />
        </mxCell>
        <mxCell id="nKgL5r-zwHb2kbBtqbAN-18" value="" style="endArrow=diamondThin;endFill=1;endSize=24;html=1;rounded=0;" parent="1" source="nKgL5r-zwHb2kbBtqbAN-17" target="nKgL5r-zwHb2kbBtqbAN-10" edge="1">
          <mxGeometry width="160" relative="1" as="geometry">
            <mxPoint x="-3886" y="-2280" as="sourcePoint" />
            <mxPoint x="-3726" y="-2280" as="targetPoint" />
          </mxGeometry>
        </mxCell>
        <mxCell id="nKgL5r-zwHb2kbBtqbAN-19" value="" style="endArrow=diamondThin;endFill=0;endSize=24;html=1;rounded=0;edgeStyle=orthogonalEdgeStyle;" parent="1" source="nKgL5r-zwHb2kbBtqbAN-5" target="FMBArwRHaRoccxMsV3ws-11" edge="1">
          <mxGeometry width="160" relative="1" as="geometry">
            <mxPoint x="-3356" y="-2330" as="sourcePoint" />
            <mxPoint x="-2970" y="-2540" as="targetPoint" />
            <Array as="points">
              <mxPoint x="-3521" y="-2550" />
              <mxPoint x="-3306" y="-2550" />
            </Array>
          </mxGeometry>
        </mxCell>
        <mxCell id="nKgL5r-zwHb2kbBtqbAN-20" value="" style="endArrow=diamondThin;endFill=0;endSize=24;html=1;rounded=0;edgeStyle=orthogonalEdgeStyle;" parent="1" source="nKgL5r-zwHb2kbBtqbAN-14" target="FMBArwRHaRoccxMsV3ws-11" edge="1">
          <mxGeometry width="160" relative="1" as="geometry">
            <mxPoint x="-3586" y="-2440" as="sourcePoint" />
            <mxPoint x="-3200" y="-2650" as="targetPoint" />
            <Array as="points">
              <mxPoint x="-4001" y="-2550" />
              <mxPoint x="-3306" y="-2550" />
            </Array>
          </mxGeometry>
        </mxCell>
        <mxCell id="nKgL5r-zwHb2kbBtqbAN-21" value="" style="endArrow=diamondThin;endFill=1;endSize=24;html=1;rounded=0;edgeStyle=orthogonalEdgeStyle;" parent="1" source="nKgL5r-zwHb2kbBtqbAN-1" target="EIWtW14MWvJl-eXGEkqy-52" edge="1">
          <mxGeometry width="160" relative="1" as="geometry">
            <mxPoint x="-3466" y="-1970" as="sourcePoint" />
            <mxPoint x="-3466" y="-1860" as="targetPoint" />
            <Array as="points">
              <mxPoint x="-3511" y="-1950" />
              <mxPoint x="-2256" y="-1950" />
            </Array>
          </mxGeometry>
        </mxCell>
        <mxCell id="nKgL5r-zwHb2kbBtqbAN-22" value="" style="endArrow=diamondThin;endFill=1;endSize=24;html=1;rounded=0;edgeStyle=orthogonalEdgeStyle;" parent="1" source="nKgL5r-zwHb2kbBtqbAN-10" target="EIWtW14MWvJl-eXGEkqy-52" edge="1">
          <mxGeometry width="160" relative="1" as="geometry">
            <mxPoint x="-3793" y="-2110" as="sourcePoint" />
            <mxPoint x="-2739" y="-1765" as="targetPoint" />
            <Array as="points">
              <mxPoint x="-4001" y="-1950" />
              <mxPoint x="-2256" y="-1950" />
            </Array>
          </mxGeometry>
        </mxCell>
        <mxCell id="nKgL5r-zwHb2kbBtqbAN-24" value="" style="endArrow=open;endFill=1;endSize=12;html=1;rounded=0;edgeStyle=orthogonalEdgeStyle;" parent="1" source="FMBArwRHaRoccxMsV3ws-47" target="XDDPpy6xa9LlmRaPZi7B-13" edge="1">
          <mxGeometry width="160" relative="1" as="geometry">
            <mxPoint x="-1256" y="-1520" as="sourcePoint" />
            <mxPoint x="-1646" y="-870" as="targetPoint" />
            <Array as="points">
              <mxPoint x="-1571" y="-1170" />
            </Array>
          </mxGeometry>
        </mxCell>
        <mxCell id="nKgL5r-zwHb2kbBtqbAN-25" value="" style="endArrow=open;endFill=1;endSize=12;html=1;rounded=0;edgeStyle=orthogonalEdgeStyle;" parent="1" source="XDDPpy6xa9LlmRaPZi7B-5" target="XDDPpy6xa9LlmRaPZi7B-13" edge="1">
          <mxGeometry width="160" relative="1" as="geometry">
            <mxPoint x="-856" y="-2110" as="sourcePoint" />
            <mxPoint x="-1636" y="-1416" as="targetPoint" />
            <Array as="points">
              <mxPoint x="-566" y="-2770" />
              <mxPoint x="-566" y="-1020" />
            </Array>
          </mxGeometry>
        </mxCell>
        <mxCell id="nKgL5r-zwHb2kbBtqbAN-26" value="" style="endArrow=open;endFill=1;endSize=12;html=1;rounded=0;edgeStyle=orthogonalEdgeStyle;" parent="1" source="XDDPpy6xa9LlmRaPZi7B-1" target="XDDPpy6xa9LlmRaPZi7B-13" edge="1">
          <mxGeometry width="160" relative="1" as="geometry">
            <mxPoint x="-830" y="-2548" as="sourcePoint" />
            <mxPoint x="-2152" y="-1430" as="targetPoint" />
            <Array as="points">
              <mxPoint x="-566" y="-2970" />
              <mxPoint x="-566" y="-1020" />
            </Array>
          </mxGeometry>
        </mxCell>
        <mxCell id="dkga8902RlRk5C-HjE2B-2" value="" style="endArrow=diamondThin;endFill=1;endSize=24;html=1;rounded=0;edgeStyle=orthogonalEdgeStyle;jumpStyle=arc;jumpSize=30;" parent="1" source="XDDPpy6xa9LlmRaPZi7B-17" target="EIWtW14MWvJl-eXGEkqy-52" edge="1">
          <mxGeometry width="160" relative="1" as="geometry">
            <mxPoint x="-2546" y="-862" as="sourcePoint" />
            <mxPoint x="-2546" y="-970" as="targetPoint" />
            <Array as="points">
              <mxPoint x="-2546" y="-1630" />
            </Array>
          </mxGeometry>
        </mxCell>
        <mxCell id="LI2CkbyQ2BE_ZrwpYUtt-5" value="&lt;b  style=&quot;border-color: var(--border-color);&quot;&gt;&lt;font  style=&quot;font-size: 14px;&quot;&gt;DamegedCopy&lt;/font&gt;&lt;/b&gt;" style="swimlane;fontStyle=1;align=center;verticalAlign=top;childLayout=stackLayout;horizontal=1;startSize=26;horizontalStack=0;resizeParent=1;resizeParentMax=0;resizeLast=0;collapsible=1;marginBottom=0;whiteSpace=wrap;html=1;fillColor=#dae8fc;strokeColor=#6c8ebf;" parent="1" vertex="1">
          <mxGeometry x="-946" y="-2422" width="330" height="180" as="geometry" />
        </mxCell>
        <mxCell id="LI2CkbyQ2BE_ZrwpYUtt-6" value="&lt;p  style=&quot;border-color: var(--border-color); margin: 0px 0px 0px  4px;&quot;&gt;&lt;span style=&quot;background-color: initial;&quot;&gt;-  _damager: User&lt;/span&gt;&lt;br&gt;&lt;/p&gt;&lt;p  style=&quot;border-color: var(--border-color); margin: 0px 0px 0px  4px;&quot;&gt;&lt;span style=&quot;background-color: initial;&quot;&gt;-  _damagedDate: Date&lt;/span&gt;&lt;/p&gt;&lt;p style=&quot;border-color:  var(--border-color); margin: 0px 0px 0px 4px;&quot;&gt;- _bookCopyID:  String&lt;/p&gt;&lt;p style=&quot;border-color: var(--border-color);  margin: 0px 0px 0px 4px;&quot;&gt;- _section: Section&lt;/p&gt;" style="text;strokeColor=none;fillColor=none;align=left;verticalAlign=top;spacingLeft=4;spacingRight=4;overflow=hidden;rotatable=0;points=[[0,0.5],[1,0.5]];portConstraint=eastwest;whiteSpace=wrap;html=1;rotation=0;" parent="LI2CkbyQ2BE_ZrwpYUtt-5" vertex="1">
          <mxGeometry y="26" width="330" height="64" as="geometry" />
        </mxCell>
        <mxCell id="LI2CkbyQ2BE_ZrwpYUtt-7" value="" style="line;strokeWidth=1;fillColor=none;align=left;verticalAlign=middle;spacingTop=-1;spacingLeft=3;spacingRight=3;rotatable=0;labelPosition=right;points=[];portConstraint=eastwest;strokeColor=inherit;" parent="LI2CkbyQ2BE_ZrwpYUtt-5" vertex="1">
          <mxGeometry y="90" width="330" height="8" as="geometry" />
        </mxCell>
        <mxCell id="LI2CkbyQ2BE_ZrwpYUtt-8" value="&lt;p  style=&quot;border-color: var(--border-color); margin: 0px 0px 0px  4px;&quot;&gt;+ Repair()&lt;/p&gt;&lt;p style=&quot;border-color:  var(--border-color); margin: 0px 0px 0px 4px;&quot;&gt;+ IsAvaible()&lt;br  style=&quot;border-color: var(--border-color);&quot;&gt;+  IsBorrowed()&lt;br style=&quot;border-color:  var(--border-color);&quot;&gt;+ IsOrdered()&lt;br  style=&quot;border-color: var(--border-color);&quot;&gt;+  GetDueDate()&lt;br&gt;&lt;/p&gt;" style="text;strokeColor=none;fillColor=none;align=left;verticalAlign=top;spacingLeft=4;spacingRight=4;overflow=hidden;rotatable=0;points=[[0,0.5],[1,0.5]];portConstraint=eastwest;whiteSpace=wrap;html=1;rotation=0;" parent="LI2CkbyQ2BE_ZrwpYUtt-5" vertex="1">
          <mxGeometry y="98" width="330" height="82" as="geometry" />
        </mxCell>
        <mxCell id="3VBd_VB_IdiQkLcemd7t-1" value="" style="endArrow=block;endSize=16;endFill=0;html=1;rounded=0;edgeStyle=orthogonalEdgeStyle;" parent="1" source="LI2CkbyQ2BE_ZrwpYUtt-5" target="FMBArwRHaRoccxMsV3ws-44" edge="1">
          <mxGeometry width="160" relative="1" as="geometry">
            <mxPoint x="-981" y="-2627" as="sourcePoint" />
            <mxPoint x="-1061" y="-2643" as="targetPoint" />
            <Array as="points">
              <mxPoint x="-976" y="-2354" />
              <mxPoint x="-976" y="-2727" />
            </Array>
          </mxGeometry>
        </mxCell>
        <mxCell id="3VBd_VB_IdiQkLcemd7t-4" value="" style="endArrow=open;endFill=1;endSize=12;html=1;rounded=0;edgeStyle=orthogonalEdgeStyle;" parent="1" source="LI2CkbyQ2BE_ZrwpYUtt-5" target="XDDPpy6xa9LlmRaPZi7B-13" edge="1">
          <mxGeometry width="160" relative="1" as="geometry">
            <mxPoint x="-796" y="-2220" as="sourcePoint" />
            <mxPoint x="-1326" y="-1720" as="targetPoint" />
            <Array as="points">
              <mxPoint x="-566" y="-2310" />
              <mxPoint x="-566" y="-1020" />
            </Array>
          </mxGeometry>
        </mxCell>
        <mxCell id="3VBd_VB_IdiQkLcemd7t-5" value="&lt;b  style=&quot;border-color: var(--border-color);&quot;&gt;&lt;font  style=&quot;font-size: 14px;&quot;&gt;OrderedCopy&lt;/font&gt;&lt;/b&gt;" style="swimlane;fontStyle=1;align=center;verticalAlign=top;childLayout=stackLayout;horizontal=1;startSize=26;horizontalStack=0;resizeParent=1;resizeParentMax=0;resizeLast=0;collapsible=1;marginBottom=0;whiteSpace=wrap;html=1;fillColor=#dae8fc;strokeColor=#6c8ebf;" parent="1" vertex="1">
          <mxGeometry x="-936" y="-2610" width="330" height="150" as="geometry" />
        </mxCell>
        <mxCell id="3VBd_VB_IdiQkLcemd7t-6" value="&lt;p  style=&quot;border-color: var(--border-color); margin: 0px 0px 0px  4px;&quot;&gt;- _orderDate: Date&lt;/p&gt;&lt;p style=&quot;border-color:  var(--border-color); margin: 0px 0px 0px 4px;&quot;&gt;- _bookCopyID:  String&lt;/p&gt;&lt;p style=&quot;border-color: var(--border-color);  margin: 0px 0px 0px 4px;&quot;&gt;- _section: Section&lt;/p&gt;" style="text;strokeColor=none;fillColor=none;align=left;verticalAlign=top;spacingLeft=4;spacingRight=4;overflow=hidden;rotatable=0;points=[[0,0.5],[1,0.5]];portConstraint=eastwest;whiteSpace=wrap;html=1;rotation=0;" parent="3VBd_VB_IdiQkLcemd7t-5" vertex="1">
          <mxGeometry y="26" width="330" height="50" as="geometry" />
        </mxCell>
        <mxCell id="3VBd_VB_IdiQkLcemd7t-7" value="" style="line;strokeWidth=1;fillColor=none;align=left;verticalAlign=middle;spacingTop=-1;spacingLeft=3;spacingRight=3;rotatable=0;labelPosition=right;points=[];portConstraint=eastwest;strokeColor=inherit;" parent="3VBd_VB_IdiQkLcemd7t-5" vertex="1">
          <mxGeometry y="76" width="330" height="8" as="geometry" />
        </mxCell>
        <mxCell id="3VBd_VB_IdiQkLcemd7t-8" value="&lt;p  style=&quot;border-color: var(--border-color); margin: 0px 0px 0px  4px;&quot;&gt;+ IsAvaible()&lt;br style=&quot;border-color:  var(--border-color);&quot;&gt;+ IsBorrowed()&lt;br  style=&quot;border-color: var(--border-color);&quot;&gt;+  IsOrdered()&lt;br style=&quot;border-color:  var(--border-color);&quot;&gt;+ GetDueDate()&lt;br&gt;&lt;/p&gt;" style="text;strokeColor=none;fillColor=none;align=left;verticalAlign=top;spacingLeft=4;spacingRight=4;overflow=hidden;rotatable=0;points=[[0,0.5],[1,0.5]];portConstraint=eastwest;whiteSpace=wrap;html=1;rotation=0;" parent="3VBd_VB_IdiQkLcemd7t-5" vertex="1">
          <mxGeometry y="84" width="330" height="66" as="geometry" />
        </mxCell>
        <mxCell id="3VBd_VB_IdiQkLcemd7t-11" value="" style="shape=umlActor;verticalLabelPosition=bottom;verticalAlign=top;html=1;" parent="1" vertex="1">
          <mxGeometry x="-496" y="-2860" width="10" height="10" as="geometry" />
        </mxCell>
      </root>
    </mxGraphModel>
  </diagram>
</mxfile>
